<svg xmlns="http://www.w3.org/2000/svg" version="1.1" xmlns:xlink="http://www.w3.org/1999/xlink" xmlns:svgjs="http://svgjs.com/svgjs" width="20" height="19"><svg xmlns="http://www.w3.org/2000/svg" viewBox="0 0 20 19"><title>The_Fox</title><g id="SvgjsG1001" data-name="Layer 2"><g id="SvgjsG1000" data-name="Layer 1"><polygon points="9 12 8 12 8 11 9 12"></polygon><polygon points="11 12 12 12 12 11 11 12"></polygon><polygon points="12 13 12 12 11 12 12 13"></polygon><polygon points="6 13 6 12 5 12 6 13"></polygon><polygon points="15 12 14 12 14 11 15 12"></polygon><polygon points="9 12 8 12 8 13 9 12"></polygon><polygon points="15 12 14 12 14 13 15 12"></polygon><polygon points="6 11 6 12 5 12 6 11"></polygon><rect x="12" y="11" width="1" height="1" transform="translate(25 23) rotate(180)"></rect><rect x="17" y="1" width="1" height="1" transform="translate(35 3) rotate(180)"></rect><rect x="17" y="2" width="1" height="1" transform="translate(35 5) rotate(180)"></rect><rect x="17" y="3" width="1" height="1" transform="translate(35 7) rotate(180)"></rect><rect x="17" y="4" width="1" height="1" transform="translate(35 9) rotate(180)"></rect><rect x="17" y="5" width="1" height="1" transform="translate(35 11) rotate(180)"></rect><rect x="17" y="6" width="1" height="1" transform="translate(35 13) rotate(180)"></rect><rect x="12" y="12" width="1" height="1" transform="translate(25 25) rotate(180)"></rect><rect x="13" y="12" width="1" height="1" transform="translate(27 25) rotate(180)"></rect><rect x="6" y="12" width="1" height="1" transform="translate(13 25) rotate(180)"></rect><rect x="6" y="11" width="1" height="1" transform="translate(13 23) rotate(180)"></rect><rect x="7" y="12" width="1" height="1" transform="translate(15 25) rotate(180)"></rect><polygon points="9 18 10 18 10 17 9 18"></polygon><polygon points="11 18 10 18 10 17 11 18"></polygon><polygon points="12 18 11 18 11 19 12 18"></polygon><polygon points="8 18 9 18 9 19 8 18"></polygon><rect x="13" y="17" width="1" height="1" transform="translate(27 35) rotate(180)"></rect><rect x="12" y="17" width="1" height="1" transform="translate(25 35) rotate(180)"></rect><rect x="14" y="17" width="1" height="1" transform="translate(29 35) rotate(180)"></rect><rect x="7" y="17" width="1" height="1" transform="translate(15 35) rotate(180)"></rect><rect x="6" y="17" width="1" height="1" transform="translate(13 35) rotate(180)"></rect><rect x="5" y="17" width="1" height="1" transform="translate(11 35) rotate(180)"></rect><rect x="9" y="15" width="1" height="1" transform="translate(19 31) rotate(180)"></rect><rect x="10" y="15" width="1" height="1" transform="translate(21 31) rotate(180)"></rect><rect x="10" y="18" width="1" height="1"></rect><rect x="9" y="18" width="1" height="1"></rect><polygon points="9 16 10 16 10 17 9 16"></polygon><polygon points="10 17 10 16 11 16 10 17"></polygon><polygon points="12 17 12 18 11 18 12 17"></polygon><polygon points="14 16 13 16 13 17 14 16"></polygon><polygon points="14 15 14 16 13 16 14 15"></polygon><polygon points="6 16 6 17 5 17 6 16"></polygon><polygon points="14 16 14 17 13 17 14 16"></polygon><polygon points="13 16 13 17 12 17 13 16"></polygon><polygon points="8 17 8 18 9 18 8 17"></polygon><polygon points="6 16 7 16 7 17 6 16"></polygon><polygon points="6 15 6 16 7 16 6 15"></polygon><polygon points="6 16 6 17 7 17 6 16"></polygon><polygon points="7 16 7 17 8 17 7 16"></polygon><polygon points="14 16 14 17 15 17 14 16"></polygon><polygon points="4 9 5 9 5 8 4 9"></polygon><polygon points="5 9 5 8 6 8 5 9"></polygon><polygon points="16 9 15 9 15 8 16 9"></polygon><polygon points="14 8 15 8 15 9 14 8"></polygon><polygon points="3 14 2 14 2 15 3 14"></polygon><rect x="2" y="10" width="1" height="1"></rect><rect x="2" y="13" width="1" height="1"></rect><polygon points="19 15 18 15 18 14 19 15"></polygon><polygon points="2 14 2 15 1 15 2 14"></polygon><polygon points="2 15 1 15 1 16 2 15"></polygon><polygon points="20 16 19 16 19 17 20 16"></polygon><polygon points="1 15 1 16 0 16 1 15"></polygon><rect x="17" y="10" width="1" height="1" transform="translate(35 21) rotate(180)"></rect><rect x="17" y="13" width="1" height="1" transform="translate(35 27) rotate(180)"></rect><rect x="17" y="11" width="1" height="1" transform="translate(35 23) rotate(180)"></rect><rect x="17" y="12" width="1" height="1" transform="translate(35 25) rotate(180)"></rect><rect x="2" y="12" width="1" height="1" transform="translate(5 25) rotate(180)"></rect><rect x="2" y="11" width="1" height="1" transform="translate(5 23) rotate(180)"></rect><rect x="2" y="17" width="1" height="1" transform="translate(5 35) rotate(180)"></rect><rect x="10" y="6" width="1" height="1" transform="translate(21 13) rotate(180)"></rect><polygon points="17 14 18 14 18 15 17 14"></polygon><polygon points="20 16 19 16 19 15 20 16"></polygon><polygon points="18 15 19 15 19 16 18 15"></polygon><polygon points="0 16 1 16 1 17 0 16"></polygon><polygon points="2 18 3 18 3 19 2 18"></polygon><rect x="17" y="17" width="1" height="1"></rect><polygon points="18 18 17 18 17 19 18 18"></polygon><polygon points="18 10 17 10 17 9 18 10"></polygon><polygon points="11 6 12 6 12 5 11 6"></polygon><polygon points="12 6 11 6 11 7 12 6"></polygon><polygon points="2 10 3 10 3 9 2 10"></polygon><polygon points="12 5 13 5 13 4 12 5"></polygon><polygon points="15 2 16 2 16 1 15 2"></polygon><polygon points="13 4 14 4 14 3 13 4"></polygon><polygon points="14 3 15 3 15 2 14 3"></polygon><polygon points="12 6 12 5 13 5 12 6"></polygon><polygon points="13 5 13 4 14 4 13 5"></polygon><polygon points="16 3 17 3 17 2 16 3"></polygon><polygon points="15 5 16 5 16 4 15 5"></polygon><polygon points="16 4 16 3 17 3 16 4"></polygon><polygon points="14 7 15 7 15 6 14 7"></polygon><polygon points="2 1 3 1 3 0 2 1"></polygon><polygon points="14 8 15 8 15 7 14 8"></polygon><polygon points="15 6 15 5 16 5 15 6"></polygon><polygon points="17 8 18 8 18 7 17 8"></polygon><polygon points="17 9 17 8 18 8 17 9"></polygon><polygon points="17 8 17 7 18 7 17 8"></polygon><polygon points="14 8 14 7 15 7 14 8"></polygon><polygon points="14 4 14 3 15 3 14 4"></polygon><polygon points="15 3 15 2 16 2 15 3"></polygon><polygon points="16 2 16 1 17 1 16 2"></polygon><polygon points="16 1 17 1 17 0 16 1"></polygon><rect x="2" y="1" width="1" height="1"></rect><rect x="2" y="2" width="1" height="1"></rect><rect x="2" y="3" width="1" height="1"></rect><rect x="2" y="4" width="1" height="1"></rect><rect x="2" y="5" width="1" height="1"></rect><rect x="2" y="6" width="1" height="1"></rect><rect x="9" y="6" width="1" height="1"></rect><polygon points="9 6 8 6 8 5 9 6"></polygon><polygon points="8 6 9 6 9 7 8 6"></polygon><polygon points="8 5 7 5 7 4 8 5"></polygon><polygon points="5 2 4 2 4 1 5 2"></polygon><polygon points="7 4 6 4 6 3 7 4"></polygon><polygon points="6 3 5 3 5 2 6 3"></polygon><polygon points="8 6 8 5 7 5 8 6"></polygon><polygon points="7 5 7 4 6 4 7 5"></polygon><polygon points="4 3 3 3 3 2 4 3"></polygon><polygon points="5 5 4 5 4 4 5 5"></polygon><polygon points="4 4 4 3 3 3 4 4"></polygon><polygon points="6 7 5 7 5 6 6 7"></polygon><polygon points="18 1 17 1 17 0 18 1"></polygon><polygon points="6 8 5 8 5 7 6 8"></polygon><polygon points="5 6 5 5 4 5 5 6"></polygon><polygon points="3 8 2 8 2 7 3 8"></polygon><polygon points="3 9 3 8 2 8 3 9"></polygon><polygon points="3 8 3 7 2 7 3 8"></polygon><polygon points="6 8 6 7 5 7 6 8"></polygon><polygon points="6 4 6 3 5 3 6 4"></polygon><polygon points="5 3 5 2 4 2 5 3"></polygon><polygon points="4 2 4 1 3 1 4 2"></polygon><polygon points="4 1 3 1 3 0 4 1"></polygon></g></g></svg><style>@media (prefers-color-scheme: light) { :root { filter: none; } }
</style></svg>