<svg xmlns="http://www.w3.org/2000/svg" viewBox="0 0 30.95 30.95"><defs><style>.cls-1{fill:#fff;}</style></defs><title>Logo_home</title><g id="Layer_2" data-name="Layer 2"><g id="Layer_1-2" data-name="Layer 1"><path class="cls-1" d="M8.47,24v1l-1-1V23h1Zm12,0h-3l-1,1h-2l-1-1h-3V23l1-1V21l1,1,1,1,1,1,1-1-1-1V21h2v1l-1,1,1,1,1-1,1-1,1-1v1l1,1Zm-7-6V17l1,1-1,1h-2l-1-1,1-1h1v1Zm6,1h-2l-1-1,1-1h1v1h1V17l1,1Zm4,5-1,1V23h1Zm1-1V22l-1-1-1-1V9l-1,1v1l-1,1v2l1,1h-1l-1-1V13l1-1V11l1-1V9l1-1V7l-1,1-1,1-1,1-1,1-1,1-1,1h-2l-1-1-1-1-1-1-1-1-1-1-1-1V8l1,1v1l1,1v1l1,1v1l-1,1h-1l1-1V12l-1-1V10l-1-1V20l-1,1-1,1v1l-1-1,1-1,1-1V16l1-1-1-1V7l1-1,1,1,1,1,1,1,1,1,1,1,1,1h2l1-1,1-1,1-1,1-1,1-1,1-1,1,1v7l-1,1,1,1v4l1,1,1,1Z"/><path class="cls-1" d="M15.47,31A15.48,15.48,0,1,1,31,15.47,15.49,15.49,0,0,1,15.47,31Zm0-30A14.53,14.53,0,1,0,30,15.47,14.54,14.54,0,0,0,15.47,1Z"/></g></g></svg>