<?xml version="1.0" encoding="utf-8"?>
<!-- Generator: Adobe Illustrator 23.0.6, SVG Export Plug-In . SVG Version: 6.00 Build 0)  -->
<svg version="1.1" id="Layer_1" xmlns="http://www.w3.org/2000/svg" xmlns:xlink="http://www.w3.org/1999/xlink" x="0px" y="0px"
	 viewBox="0 0 1248 1248" style="enable-background:new 0 0 1248 1248;" xml:space="preserve">
<style type="text/css">
	
		.st0{fill-rule:evenodd;clip-rule:evenodd;fill:#294B9A;stroke:#294B9A;stroke-width:0.2544;stroke-linecap:round;stroke-linejoin:round;stroke-miterlimit:10;}
	
		.st1{fill-rule:evenodd;clip-rule:evenodd;fill:#E6411E;stroke:#E6411E;stroke-width:0.2774;stroke-linecap:round;stroke-linejoin:round;stroke-miterlimit:10;}
	
		.st2{fill-rule:evenodd;clip-rule:evenodd;fill:#294B9A;stroke:#294B9A;stroke-width:0.2494;stroke-linecap:round;stroke-linejoin:round;stroke-miterlimit:10;}
	
		.st3{fill-rule:evenodd;clip-rule:evenodd;fill:#E6411E;stroke:#E6411E;stroke-width:0.272;stroke-linecap:round;stroke-linejoin:round;stroke-miterlimit:10;}
</style>
<g id="Layer_1_1_">
</g>
<g id="Layer_3">
</g>
<g id="Layer_4">
</g>
<g id="Layer_5">
</g>
<g id="Layer_6">
</g>
<g id="Layer_7">
</g>
<g id="Layer_8">
</g>
<g>
	<polygon class="st0" points="145.3,190 145.3,105.3 230,105.3 	"/>
	<polygon class="st0" points="460.2,83.2 289.9,165.1 230,105.3 	"/>
	<polygon class="st0" points="205.2,249.9 205.2,165.1 289.9,165.1 	"/>
	<polygon class="st0" points="145.3,190 205.2,249.9 145.3,309.7 	"/>
</g>
<g>
	<polygon class="st1" points="1018,105.3 1102.7,105.3 1102.7,190 	"/>
	<polygon class="st1" points="958.1,165.1 1042.8,165.1 1042.8,249.9 	"/>
	<polygon class="st1" points="1018,105.3 958.1,165.1 787.8,83.2 	"/>
	<polygon class="st1" points="1102.7,309.7 1042.8,249.9 1102.7,190 	"/>
</g>
<g>
	<polygon class="st0" points="683.4,1020.4 623.6,1080.4 563.7,1020.4 	"/>
	<polygon class="st0" points="683.4,1105.1 623.6,1165 563.7,1105.1 	"/>
	<polygon class="st0" points="683.4,1105.1 683.4,1020.6 768.2,1020.6 	"/>
	<polygon class="st0" points="479,1020.6 563.7,1020.6 563.7,1105.1 	"/>
</g>
<polygon class="st2" points="348.1,462.8 391.1,462.8 434.2,462.8 477.4,419.8 434.2,376.7 391.1,376.7 348.1,376.7 304.9,419.8 
	262,376.7 218.9,419.8 218.9,462.8 218.9,505.9 218.9,548.9 218.9,592.1 218.9,635.2 218.9,678.2 218.9,721.4 218.9,764.3 
	262,807.5 304.9,850.5 304.9,807.5 304.9,764.3 304.9,721.4 304.9,678.2 304.9,635.2 348.1,635.2 391.1,592.1 434.2,548.9 
	391.1,548.9 348.1,548.9 304.9,548.9 304.9,505.9 "/>
<g>
	<polygon class="st2" points="741.1,286 698.1,286 655,286 612,329.1 568.9,286 525.9,329.1 525.9,372.2 525.9,415.2 525.9,458.3 
		525.9,501.3 525.9,544.5 525.9,587.6 525.9,630.6 525.9,673.8 525.9,716.8 525.9,759.9 568.9,716.8 612,759.9 612,716.8 612,673.8 
		612,630.6 612,587.6 612,544.5 655,544.5 698.1,501.3 741.1,458.3 698.1,458.3 655,458.3 612,458.3 612,415.2 655,372.2 
		698.1,372.2 741.1,372.2 741.3,372.2 784.3,329.1 741.3,286 	"/>
</g>
<polygon class="st3" points="965.1,592.1 1008.1,548.9 1051.3,505.9 1008.1,462.8 965.1,419.8 922,376.7 878.8,419.8 922,462.8 
	965.1,505.9 922,548.9 878.8,592.1 878.8,548.9 878.8,505.9 878.8,462.8 878.8,419.8 835.9,376.7 792.7,419.8 792.7,462.8 
	792.7,505.9 792.7,548.9 792.7,592.1 792.7,635.1 792.9,635.1 792.9,678.2 792.9,721.4 792.7,721.4 792.7,764.3 792.7,807.5 
	792.9,807.5 792.9,850.5 835.9,807.5 878.8,850.5 878.8,807.5 878.8,764.3 878.8,721.4 878.8,678.2 922,635.1 965.1,678.2 
	965.1,721.4 965.1,764.3 922,721.4 878.8,764.3 922,807.5 965.1,850.5 1008.1,807.5 1051.3,764.3 1051.3,721.4 1051.3,678.2 
	1008.1,635.1 "/>
</svg>
