<?xml version="1.0" encoding="utf-8"?>
<!-- Generator: Adobe Illustrator 23.0.6, SVG Export Plug-In . SVG Version: 6.00 Build 0)  -->
<svg version="1.1" id="Layer_1" xmlns="http://www.w3.org/2000/svg" xmlns:xlink="http://www.w3.org/1999/xlink" x="0px" y="0px"
	 viewBox="0 0 1248 1248" style="enable-background:new 0 0 1248 1248;" xml:space="preserve">
<style type="text/css">
	.st0{fill:#273375;}
	.st1{fill:#E30613;}
	.st2{fill:#9D9D9C;}
	.st3{fill:#1D1D1B;}
	.st4{fill:#1D3D91;}
	.st5{fill:#FFFFFF;}
	.st6{fill:#009C51;}
</style>
<title>Logo_LNDD</title>
<g>
	<path class="st0" d="M120.3,1227.9l1.9-1.9l0,0c1.1-1.3,2.3-2.5,3.5-3.6l1.1-0.9c0,0,0,0,0-0.4c0-0.4-0.9,0.6-1.4,0.8
		c-0.5,0.2,0,0,0,0l1.1-0.9l0,0l0,0c-1.3,0-2.5,0.6-3.3,1.6c0,0-0.4,0-0.6,0c-1.5,0.5-2.7,1.9-4.3,2.5l0,0c-0.6,0.3-1.3,0.6-1.9,0.7
		c-0.9,0.1-1.7,0.1-2.6,0c-1.3,0.1-2.6,0.4-3.8,0.7l0,0c-0.7,0.2-1.4,0.4-2,0.8l0,0l0,0c-0.2,0.3-0.4,0.5-0.7,0.7
		c-0.6,0.4-1.2,0.8-1.7,1.4l0,0l-1.7,1.7l0,0l0,0v-0.4c0.1-0.2,0.2-0.3,0.3-0.5l0.4-0.6l0,0l0,0c0.5-0.5,1.1-0.9,1.7-1.3l0,0l0,0
		v-0.3l0,0l0,0l-0.5,0.4c0,0-0.5,0.7-0.9,0.7l0,0l0,0l0,0l0,0l0,0l0,0l0,0l0,0l0,0c0.2-0.2,0.4-0.4,0.7-0.6l0,0l1.2-0.7l0,0
		c-0.6,0.2-1.2,0.5-1.7,0.8l0,0l0,0l0,0c0,0,0.4,0,0.6-0.6s0,0,0,0c3.3-2.6,8-2,11.8-3.3l0.9-0.6c0.5,0,0.9-0.7,1.5-1
		c0.9-0.6,1.5-1.4,1.8-2.4l0,0c-1.3,1.4-2.9,2.6-4.6,3.5c-2.2,0.9-4.5,1.3-6.9,1.3c0,0,0.3,0,0.6,0s0-0.4,0.4-0.6l0,0l0,0h0.4
		c-0.4-0.4-1,0-1.5,0s0-0.6,0.3-0.6h0.4c0-0.1,0-0.3,0-0.4l4.5-2.5c0,0-0.6,0.3-0.9,0c-0.3-0.3,0-0.3,0-0.3s2.1-0.9,3.2-1.4
		c-0.4,0-0.7,0.3-1.1,0c-0.4-0.3,0,0,0.6,0v-0.3l0,0l0,0c0,0,0.4,0,0.6-0.3l0,0c0.4-0.4,0.8-0.6,1.4-0.7H119l0,0l0,0
		c0,0,0-0.3,0-0.4c0.5-0.8,0.8-1.6,0.9-2.5l0,0c-1.2,1.1-2.7,1.8-4.3,2h-0.6c-0.5,0.3-1.2,0.3-1.7,0c-0.4-0.3-0.7-0.5-1-0.9
		c-0.8-0.5-1.7-0.9-2.7-1.2c-2.6-0.9-5.3-1.3-8-1.2c1.2-0.5,2.4-0.8,3.6-1c1.7-0.7,3.5-1,5.4-1c-0.3-0.1-0.7-0.1-1,0
		c-1.5,0-3,0.2-4.5,0.6c-1,0-2,0.7-3,0.9c-1,0.2-1,0.8-1.7,0.7v-0.3c0.9-1.4,2.4-2.3,4-2.7c1.8-0.3,3.7-0.3,5.6,0
		c1.3,0.1,2.7,0.3,3.9,0.7c0.6,0,0.6,0.8,1,0.9c0.4,0.1,1.2,0,1.9,0.4c0.7,0.4,0-0.4,0-0.7c0-0.2,0.9,0,1.4,0s-0.7-1.5-1.2-2.2l0,0
		c0.7,0.8,1.6,1.5,2.5,2.1c0.6,0,1.8,0.5,1.6,0c-0.7-1.1-1.5-2.2-2.4-3.1v-0.4c0,0,0,0-0.3,0v-0.4c-0.4,0,0-0.6-0.6-0.9
		c-0.6-0.3,0-1.2-0.3-1.9c-0.2-0.6-0.3-1.1-0.4-1.7c-0.3-1.8-0.7-3.4-0.9-5.1c-0.2-1.7,1.2-3.5,2.1-5.3c0.7-1.3,1.7-2.5,2.9-3.3
		c0.8-2.5,2.7-4.6,5.2-5.5l2.8-1H57.4v55.5h50.9c2.1-1.3,4.4-2.5,6.7-3.5C117.2,1233.4,119,1230.8,120.3,1227.9z M104.2,1220.4
		c0,0-0.6,0-0.6,0c0.1,0,0.9-0.5,1.3-0.7s0.5-0.3,0.7,0s0.5,0,0.7,0.4S105,1220.1,104.2,1220.4z M88.2,1218.1L88.2,1218.1
		c1.3-1.6,2.4-3.4,3.3-5.3c1.3-0.8,2.6-1.8,3.6-3c1.7-1.9,3.7-3.4,6-4.6c0.9-0.3,1.8-0.3,2.7,0c0,0.4-0.9,0.3-1.3,0.6
		c-0.1,0-0.2,0-0.3,0c0-0.1,0-0.2,0-0.3c-1,1.2-2.5,1.7-3.3,3c-0.8,1.4-1,2.4-2.4,2.7c-0.4,0,0-0.3,0,0
		C93.4,1213.2,90.6,1215.4,88.2,1218.1z M96.9,1211.5l-0.3,0.4c0,0,0,0.3-0.4,0.4l0,0c0.1-0.4,0.4-0.8,0.8-1
		C97,1211.3,96.9,1211.1,96.9,1211.5z M101.8,1227.1v0.3l0,0c-0.2,0.3-0.5,0.5-0.8,0.6l0,0l-0.4,0.4c0,0-0.7,0-0.5,0l0.7-0.7
		l0.4-0.4l0,0c0,0,0.6-0.6,0.5-0.3V1227.1z M99.9,1226.3L99.9,1226.3l-1.2,0.8l-1.4,0.7l0,0l0,0c-0.4,0.2-0.7,0.5-1,0.8l0,0l0,0l0,0
		l0,0l0,0l0,0l0,0l0,0l0,0h-1.3l-0.4,0.3l-0.6,0.7l0,0l0,0l0,0l0,0l0,0l0.3-0.4l0,0l0,0l0,0l0,0c0.1-0.1,0.2-0.3,0.3-0.4l0,0l0,0
		l0,0l0,0l0,0l0,0l0,0l0,0l0,0l0,0l0.4-0.6l0,0l-0.4,0.3l0,0l0,0l0,0c0.1-0.2,0.3-0.4,0.5-0.6h0.4l0,0l0,0l0,0c1-1,2.7-0.9,4-1.5
		c1.3-0.6,1.2,0,1.7,0c0.3-0.1,0.7-0.1,1,0L99.9,1226.3z M102,1219c0,0,0.3,0,0.4,0h-0.9l0,0l-1.7,0.4c-0.7,0-1.4,0.7-2.2,0.9
		s-2.1,1.4-3.3,1.8l0,0c0,0,0.6-0.4,0.7-0.7c0.2-0.3,0,0,0,0c0.9-1,1.9-1.9,3-2.7v-0.3c0.3-0.4,0.9-0.6,1-1.1c0.2-0.4,0.6-0.8,1-1
		l0,0c0,0-0.8,0-1.2,0c0.2-0.2,0.4-0.3,0.7-0.4l0,0c0,0,0-0.4,0.5-0.5c0.5-0.1,0.9,0,1.2-0.4c-0.7,0-1.5,0-2.3,0
		c0.5-1.3,1.4-2.5,2.7-3.1h0.3c0,0.5-0.3,1-0.9,1c0.9,0.1,1.7,0.4,2.5,0.6c0,0,0,0-0.4,0s1.2,0,1.7,0.5c0.5,0.5-0.6,0-0.9,0
		c3.3,0.7,6.5,2,9.4,3.8c-2.3,1-4.7,1.8-7.2,2.2c-0.3,0.1-0.5,0.1-0.8,0l0,0c-0.3-0.1-0.7-0.1-1,0c-1.4-1-2-0.9-2.3-1.2V1219z"/>
	<path class="st1" d="M209.6,1179.1h-59.6h0.6l1.5,0.8c0.8,0.4,1.5,0.9,2,1.7c0,0.4,0.6,1,0,1.4s0,1.4-0.8,1.5
		c-0.7,0.2-1.5,0.2-2.2,0h-1.2c1.6,0.5,3,1.5,4.1,2.8c0.3,0.2,0.6,0.3,0.9,0.3l0,0c0,0-0.4,0.3-0.3,0.6h0.3c0.6,0,0.4-1.2,1.2-0.9
		c0.5,0.3,0.7,1,0.4,1.5c0,0,0,0,0,0c-0.4,0.4-0.8,0.8-1.2,1c-0.1,0.2-0.1,0.5,0,0.7c0.2,0.4,0.4,0.8,0.6,1.2c0,0.7,0.4,1.6,0.7,2.3
		c0.5,1.5,0.8,3.1,0.7,4.7c0,0.9-0.4,1.5,0,2.4c0.3,0.8,0.6,1.5,1.1,2.2c0.4,0.5,0.8,1.1,1.2,1.7c0.6,1,1.8,2.1,1.2,3.3
		c-0.6,1.2-1.4,0.6-2.2,1c-0.7,0.4,0,1.4,0,1.9s-0.6,1.6-1.4,1.9c-0.7,0.3,0.6,0,0.7,0.4c0.1,0.4,0.6,0.8,0.3,1.4
		c-0.3,0.6-1.7,0.9-1,1.9c0.3,0.7,0.3,1.6,0,2.3c-0.3,0.8-1,1.4-1.9,1.5c-0.7,0.1-1.3,0.1-2,0c-0.2-0.1-0.5-0.1-0.7,0
		c-1.8-0.3-3.5-0.6-5.3-0.7l-1.5,0.4l-1.2,1.1l0,0l0,0l0,0l0,0c-0.3,0.4-0.6,0.8-0.8,1.2l0,0l0,0c-0.3,0.6-0.6,1.2-0.8,1.9
		c-0.7,1.6-0.7,3.4,0,5c0,0,3.5,1.1,5.7,2.2l2.5,1.2h58.5L209.6,1179.1z"/>
	<path class="st2" d="M153.6,1199.1c0.4,0,1,0,1,0.4c0,0.4-1.5,1-2.1,1.9h-0.3c0,0,0,0.7-0.6,0.7c-0.3-0.1-0.6-0.1-0.9,0
		c0.4,0.4,1,0.7,1.6,0.6c0.1,0.1,0.1,0.3,0,0.4l0,0l0,0v0.4c-0.3,0.4-0.8,0-1.2,0.3c0.8,0.2,1.6,0.2,2.4,0c0.6,0,0-1.2,0.4-1.7
		c0.4-0.5,0-0.3,0-0.3c0.2-0.3,0.4-0.5,0.6-0.7c0.2,0,0.5-0.1,0.6-0.3c0,0-0.4-0.3-0.3-0.5s1.1-1,0.9-1.7c-0.2-0.6-0.9-0.3-1.5-0.6
		c-0.6-0.1-1.2-0.1-1.8,0c-0.5,0.1-1,0.2-1.5,0.4c-0.7,0.2-1.4,0.6-2,1c0.7,0,1.5-0.4,2.3-0.7
		C152.1,1198.8,152.9,1198.9,153.6,1199.1z"/>
	<path class="st3" d="M239.8,1179.9h16.7c12,0,19.4,6.2,19.4,16.3c0.3,6.1-3.2,11.7-8.8,14.1l17.1,24.1h-13l-14.6-22h-5.7v22h-11
		V1179.9z M250.9,1189.1v14.1h6.2c3.9,0,7-3.1,7-7c0-3.9-3.1-7-7-7c0,0,0,0,0,0H250.9z"/>
	<path class="st3" d="M291.9,1179.9h31.8v9.2H303v13h17.6v9.4H303v14h20.7v9.2h-31.8V1179.9z M302.7,1175.2l8.8-10.5h11.4
		l-10.1,10.5H302.7z"/>
	<path class="st3" d="M337.3,1179.9h18c12.3,0,19.3,6.2,19.3,16.3c0,10.1-7.3,16.2-19.3,16.2h-6.9v22h-11V1179.9z M348.4,1189.1
		v14.1h7.4c3.9,0,7-3.1,7-7c0-3.9-3.1-7-7-7c0,0,0,0,0,0H348.4z"/>
	<path class="st3" d="M416.7,1179.9h11v33.2c0.6,12.2-8.7,22.6-20.9,23.2c-12.2,0.6-22.6-8.7-23.2-20.9c0-0.8,0-1.6,0-2.3v-33.2h11
		v34.1c-0.5,6.1,4.1,11.4,10.2,11.8c6.1,0.5,11.4-4.1,11.8-10.2c0-0.5,0-1.1,0-1.7V1179.9z"/>
	<path class="st3" d="M442.3,1179.9h16c11.4,0,18.5,5.6,18.5,14.8c0,4.3-2.3,8.3-6,10.6c5.4,2,8.9,7.2,8.9,12.9c0,10-7.7,16-20.2,16
		h-17.2V1179.9z M453.3,1189.1v12.3h5.2c3.4,0,6.2-2.8,6.2-6.2s-2.8-6.2-6.2-6.2H453.3z M453.3,1210.6v14.6h6.8
		c5.1,0,8.3-2.7,8.3-7.3c0-4.6-3.1-7.3-8.3-7.3H453.3z"/>
	<path class="st3" d="M491.9,1179.9h11v44.5h20.7v10h-31.8V1179.9z"/>
	<path class="st3" d="M534.1,1179.9h11.3v54.5h-11.1L534.1,1179.9z"/>
	<path class="st3" d="M618.4,1238.2c1.3,0,2.6-0.2,3.9-0.6v9.4c-1.8,0.7-3.8,1-5.8,1c-6.4-0.2-12.4-2.7-17-7.2l-6.5-5.8
		c-2.4,0.7-4.9,1-7.5,1c-15.9-0.1-28.8-13-28.7-28.9s13-28.8,28.9-28.7c15.9,0.1,28.7,13,28.7,28.8c0.1,8.8-3.9,17.2-10.8,22.7
		l3.3,3.1C610,1236.2,614.1,1238.1,618.4,1238.2z M603.1,1207.4c-0.5-9.7-8.8-17.1-18.5-16.6c-9.7,0.5-17.1,8.8-16.6,18.5
		c0.5,9.4,8.2,16.7,17.6,16.7c9.7,0,17.5-7.8,17.6-17.5c0-0.4,0-0.8,0-1.2L603.1,1207.4z"/>
	<path class="st3" d="M658,1179.9h10.9v33.2c0.6,12.2-8.7,22.6-20.9,23.2c-12.2,0.6-22.6-8.7-23.2-20.9c0-0.8,0-1.6,0-2.3v-33.2h11
		v34.1c-0.5,6.1,4.1,11.4,10.2,11.8s11.4-4.1,11.8-10.2c0-0.5,0-1.1,0-1.7L658,1179.9z"/>
	<path class="st3" d="M683.6,1179.9h31.8v9.2h-20.7v13h17.5v9.4h-17.7v14h20.7v9.2h-31.8L683.6,1179.9z"/>
	<path class="st3" d="M750,1179.9h31.8v9.2h-20.7v13h17.6v9.4h-17.6v23.2h-11V1179.9z"/>
	<path class="st3" d="M792.3,1179.9H809c12.3,0,19.4,6.2,19.4,16.3c0.3,6.1-3.2,11.7-8.8,14.1l17,24.1h-13l-14.6-22h-5.7v22h-11
		V1179.9z M803.3,1189.1v14.1h6.2c3.9,0,7-3.1,7-7c0-3.9-3.1-7-7-7c0,0,0,0,0,0H803.3z"/>
	<path class="st3" d="M860.6,1179.9h14.5l20.6,54.5h-11.8l-5.2-14.1h-21.8l-5.2,14.1h-11.8L860.6,1179.9z M875.2,1210.8l-7.5-20.5
		l-7.6,20.6L875.2,1210.8z"/>
	<path class="st3" d="M904.9,1179.9h14.2l24.7,39.4v-39.4h11v54.5h-14.4l-24.7-39.4v39.4h-11L904.9,1179.9z"/>
	<path class="st3" d="M1009.1,1218.2l8.7,6.7c-4.4,6-11.1,9.9-18.5,10.9l-6.8,11.3h-9.8l6.9-11.5c-15.6-3.1-25.8-18.3-22.7-34
		c3.1-15.6,18.3-25.8,34-22.7c6.8,1.3,12.9,5.1,17.1,10.6l-8.7,6.8c-3.2-4.7-8.6-7.5-14.3-7.5c-10.2,0-18.5,8.3-18.5,18.5
		c0,10.2,8.3,18.5,18.5,18.5C1000.7,1225.7,1006,1222.9,1009.1,1218.2z"/>
	<path class="st3" d="M1041.6,1179.9h14.5l20.6,54.5H1065l-5.2-14.1h-21.8l-5.2,14.1h-11.7L1041.6,1179.9z M1056.3,1210.8l-7.5-20.5
		l-7.5,20.5H1056.3z"/>
	<path class="st3" d="M1085.9,1179.9h11.1v54.5h-11.1V1179.9z"/>
	<path class="st3" d="M1116.1,1219.5c2.8,4,7.4,6.5,12.3,6.7c3.4,0.4,6.5-1.9,6.9-5.3c0-0.3,0.1-0.6,0.1-0.9
		c0-10.1-24.7-7.3-24.7-25.8c0.3-9,7.8-16.1,16.9-15.8c0.2,0,0.5,0,0.7,0c7.4-0.1,14.5,3.3,19.1,9.2l-8.1,7.3
		c-2.4-3.8-6.4-6.4-10.9-6.9c-3.3,0-6,2.5-6.2,5.8c0,9.9,24.7,7.1,24.7,25.7c-0.1,9.2-7.6,16.6-16.8,16.5c-0.5,0-0.9,0-1.4-0.1
		c-7.8,0.3-15.3-3.1-20.2-9.1L1116.1,1219.5z"/>
	<path class="st3" d="M1158.8,1179.9h31.8v9.2h-20.7v13h17.4v9.4h-17.6v14h20.7v9.2h-31.8L1158.8,1179.9z"/>
	<path class="st4" d="M174.1,622.8c-9.8,1.9-19.3-4.5-21.2-14.3c-1.9-9.8,4.5-19.3,14.3-21.2c9.8-1.9,19.3,4.5,21.2,14.3
		c0,0.1,0,0.2,0,0.3C190.3,611.6,183.8,621,174.1,622.8z"/>
	<path class="st4" d="M115.3,539.6v-15.7l77.8-1.2v15.7L115.3,539.6z"/>
	<path class="st4" d="M114.9,492.3l2.5-20.1l60.2-27.3l-55.5-7.2l2-15.6l77.1,9.9l-2.8,20.4l-60.3,27l55.5,7.2l-2,15.6L114.9,492.3z
		"/>
	<path class="st4" d="M134.2,382.1l64.9-2.8l-50.5-40.9l5.2-15.7l64.5,52.1l-6.2,19.6l-83.1,3.6L134.2,382.1z"/>
	<path class="st4" d="M164.1,302.1l20.9-40.2l11.7,6.2L183,294.3l16.4,8.5l11.6-22.3l11.6,6.2L211,308.9l17.7,9.2l13.6-26.2
		l11.6,6.2l-20.9,40.2L164.1,302.1z"/>
	<path class="st4" d="M248.2,267.2c6.9,0,13.5-3.1,17.8-8.5c3.3-3.5,3.2-9.1-0.3-12.4c-0.4-0.3-0.8-0.7-1.2-0.9
		c-11.7-8.3-28.9,22.8-50.4,7.5c-10.3-7.8-12.3-22.4-4.5-32.7c0.2-0.3,0.4-0.6,0.7-0.8c6.2-8.6,16-13.9,26.7-14.3l1.8,15.5
		c-6.4-0.5-12.7,2.1-17,7c-3.1,3.5-2.7,8.8,0.7,11.8c0.2,0.2,0.4,0.3,0.6,0.5c11.5,8.2,28.7-22.9,50.4-7.5
		c11.8,8.7,12.3,23.1,4.1,34.7c-6.1,9.3-16.2,15.2-27.3,15.9L248.2,267.2z"/>
	<path class="st4" d="M238.2,185.6l44.1-46.1l10.1,9.9l-16.6,17.4l45.9,43.8l-10.8,11.4l-45.9-43.8l-16.5,17.4L238.2,185.6z"/>
	<path class="st4" d="M299.3,125.3l12.3-10.1l49.4,60l-12.3,10L299.3,125.3z"/>
	<path class="st4" d="M369.4,142.1c6.4,2.6,13.7,2.1,19.6-1.4c4.4-2.1,6.3-7.3,4.2-11.7c-0.2-0.4-0.4-0.8-0.7-1.2
		c-7.8-12-35.3,10.6-49.4-11.5c-6.7-11.1-3.2-25.4,7.9-32.1c0.3-0.2,0.5-0.3,0.8-0.5c8.9-5.8,19.9-7.3,29.9-3.9l-3.9,15.1
		c-5.9-2.8-12.7-2.7-18.5,0.3c-4.1,2.1-5.7,7.2-3.6,11.3c0.1,0.2,0.2,0.4,0.3,0.6c7.7,11.8,35.1-10.9,49.4,11.5
		c7,11.1,3.7,25.8-7.4,32.9c-0.5,0.3-1,0.6-1.5,0.9c-8.9,6.4-20.4,8.2-30.9,4.9L369.4,142.1z"/>
	<path class="st4" d="M424.8,108.6c6,3.4,13.2,3.9,19.6,1.4c4.6-1.4,7.3-6.3,5.9-10.9c-0.1-0.5-0.3-1-0.6-1.4
		c-6.2-13-36.5,5.6-47.6-18.5c-5-12,0.7-25.7,12.7-30.6c0.2-0.1,0.4-0.1,0.5-0.2c9.5-4.6,20.7-4.6,30.2,0l-6.2,14.4
		c-5.5-3.6-12.3-4.5-18.5-2.3c-4.4,1.6-6.7,6.4-5.1,10.8c0.1,0.2,0.1,0.4,0.2,0.5c6.2,12.8,36.3-5.8,47.6,18.5
		c5.4,12,0.1,26.2-12,31.6c-0.5,0.2-1,0.4-1.5,0.6c-9.8,5.2-21.6,5.4-31.6,0.4L424.8,108.6z"/>
	<path class="st4" d="M464.5,30.2l43.2-13.3l3.8,12.3l-27.8,8.9l5.4,17.6l24-7.3l3.8,12.3L493,68l6.2,19.1l27.7-8.5l3.9,12.3
		l-43.2,13.3L464.5,30.2z"/>
	<path class="st4" d="M537.1,9.3l19.6-2.4l22.8,30.2l14.9-34.7L613.9,0l9.4,77.2l-15.6,1.9l-6.8-55.5l-13.7,30.9l-11,1.3l-20.7-26.8
		l6.7,55.5l-15.7,1.9L537.1,9.3z"/>
	<path class="st4" d="M647.2,0.5L692.4,3l-0.7,13.1l-29.5-1.7l-1,18.5l25.1,1.4l-0.7,13.1l-25.1-1.4l-1.1,20l29.5,1.7l-0.7,13.1
		l-45.2-2.6L647.2,0.5z"/>
	<path class="st4" d="M721.9,6.2l19.7,4.6l21.3,62.6l12.3-54.7l15.4,3.5l-17.5,75.8l-19.7-4.6l-21-62.6l-12.7,54.8l-15.4-3.5
		L721.9,6.2z"/>
	<path class="st4" d="M815,30.4l58.6,25.1l-5.7,13.2l-22-9.4l-25,58.3l-14.4-6.2l24.7-58.3l-22-9.4L815,30.4z"/>
	<path class="st4" d="M889.7,121.4c5.8-7.9,16.8-9.6,24.7-3.9c8.1,5.2,10.5,16.1,5.2,24.2c0,0,0,0.1-0.1,0.1
		c-5.6,8-16.6,10.1-24.7,4.5C886.7,140.8,884.3,129.7,889.7,121.4z"/>
	<path class="st4" d="M955.5,180.8c-1.2,6.8,0.8,13.8,5.5,18.9c2.9,3.9,8.4,4.7,12.3,1.7c0.4-0.3,0.8-0.6,1.1-1
		c10.1-10.2-17.8-32.3,0.7-51c9.3-8.9,24.1-8.5,33,0.9c0.2,0.3,0.5,0.5,0.7,0.8c7.6,7.4,11.3,17.9,10.1,28.5l-15.6-0.7
		c1.5-6.3-0.1-12.9-4.1-17.9c-3-3.6-8.3-4.1-11.8-1.1c-0.2,0.2-0.4,0.3-0.5,0.5c-9.9,10,18,32-0.8,51c-9.4,9.2-24.5,9.1-33.8-0.3
		c-0.4-0.4-0.7-0.8-1.1-1.2c-8.3-7.5-12.5-18.4-11.3-29.5L955.5,180.8z"/>
	<path class="st4" d="M1056.5,275.6c-18.5,13.3-44.3,9.1-57.6-9.4c-13.3-18.5-9.1-44.3,9.4-57.6c18.5-13.3,44.2-9.1,57.6,9.3
		c13.5,17.8,10,43.2-7.8,56.6C1057.5,274.9,1057,275.2,1056.5,275.6z M1047.1,262.3c10.8-8.6,12.6-24.4,3.9-35.2
		c-8.6-10.8-24.4-12.6-35.2-3.9c-10.4,8.3-12.5,23.4-4.7,34.2c7.8,11.2,23.2,14,34.4,6.2C1046,263.2,1046.5,262.8,1047.1,262.3z"/>
	<path class="st4" d="M1075.3,351.8l-3.5,15.2c-12.6-2.7-23-11.3-28.1-23.1c-9.3-20.7,0.1-45,20.8-54.3c20.7-9.3,45,0.1,54.3,20.8
		c5.1,11.4,4.7,24.5-1,35.6l-13.9-7.3c4.2-6.9,4.7-15.5,1.2-22.9c-6.6-13-22.4-18.2-35.4-11.6c-12.3,6.2-17.7,20.8-12.5,33.5
		C1060.5,345.1,1067.3,350.4,1075.3,351.8z"/>
	<path class="st4" d="M1136.4,362.3l4.6,15.1l-74.4,22.8l-4.6-15.1L1136.4,362.3z"/>
	<path class="st4" d="M1152.7,426.1l3.5,20.4l-71.8,42.1l-2.8-16.5l18.5-10.7l-5.2-30.9l-21.2-3.9l-2.8-16.5L1152.7,426.1z
		 M1112.7,454.2l27-15.4l-30.9-5.6L1112.7,454.2z"/>
	<path class="st4" d="M1161.6,498v15.7l-63.4,1l0.5,29.6h-14.4l-0.7-45.3L1161.6,498z"/>
	<path class="st4" d="M1160.7,566.1l-5.4,45.1l-13-1.6l3.5-29.3l-18.5-2.2l-3,24.7l-13-1.5l3-24.7l-19.9-2.3l-3.5,29.3l-13-1.5
		l5.4-45L1160.7,566.1z"/>
	<path class="st4" d="M1150.2,640.9l-5.7,18.5l-37,8.6l25.7,27.7l-5.7,18.8l-74.4-22.8l4.6-15.1L1111,693l-22.5-24.6l3.3-10.6
		l32.9-8l-53.3-16.4l4.6-15.1L1150.2,640.9z"/>
	<path class="st4" d="M1113.2,745.3l-20.6,40.4l-11.6-6.2l13.5-26.2l-16.4-8.5l-11.5,22.3l-11.7-6.2l11.5-22.3l-17.8-9.1l-13.5,26.2
		l-11.7-6.2l20.8-40.3L1113.2,745.3z"/>
	<path class="st4" d="M1077.7,811.1l-12.3,16.2l-65.8-6.2l44.9,33.8l-9.5,12.3l-62-46.8l12.3-16.1l65.8,6.2l-44.9-33.9l9.5-12.3
		L1077.7,811.1z"/>
	<path class="st4" d="M1017.8,886.3l-46.7,43.2l-9.8-10.5l17.6-16.4l-43.2-46.5l11.5-10.7l43.2,46.5l17.6-16.3L1017.8,886.3z"/>
	<path class="st4" d="M904.4,917.6c5.5,8.4,3.2,19.6-5.1,25.1c-8.4,5.5-19.6,3.2-25.1-5.1c-5.5-8.4-3.2-19.6,5.1-25.1
		c0.1-0.1,0.3-0.2,0.5-0.3C888.1,907,899.1,909.4,904.4,917.6z"/>
	<path class="st4" d="M213.7,666.2l8.8,22.1c6.2,15.9,2.1,28.9-11.3,34.3c-7.9,3.6-17.2,1.9-23.3-4.3l-23,35.4l-6.9-17.5l21.5-30.9
		l-3-7.5l-29.2,11.6l-5.8-14.6L213.7,666.2z M207.5,685.7l-18.5,7.5l3.3,8.3c1.4,5.4,6.9,8.6,12.3,7.1c5.4-1.4,8.6-6.9,7.1-12.3
		c-0.2-0.8-0.5-1.6-0.9-2.3L207.5,685.7z"/>
	<path class="st4" d="M241.4,731.3l22.8,39.2l-11.3,6.5L238,751.5l-15.9,9.4l12.3,21.7l-11.3,6.6l-12.3-21.7l-17.2,9.9l14.9,25.5
		l-11.4,6.6l-22.8-39.2L241.4,731.3z"/>
	<path class="st4" d="M231.9,822.1c-2,6.6-0.9,13.8,3.1,19.4c2.4,4.2,7.7,5.7,12,3.3c0.4-0.3,0.9-0.5,1.3-0.9
		c11.2-8.9-13.6-34.3,7-50.5c10.4-7.6,25-5.4,32.7,5c0.2,0.3,0.4,0.5,0.6,0.8c6.6,8.3,9,19.2,6.5,29.6l-15.3-2.7
		c2.3-6.1,1.6-13-2-18.5c-2.4-3.9-7.6-5.2-11.6-2.7c-0.3,0.2-0.5,0.4-0.8,0.6c-11,8.7,13.9,34-7,50.5c-10.5,7.9-25.5,5.8-33.4-4.7
		c-0.3-0.5-0.7-0.9-1-1.4c-7.3-8.5-10.1-20-7.5-30.9L231.9,822.1z"/>
	<path class="st4" d="M312.8,831.6l18.5,17.7c12.3,11.8,13.9,25.4,3.9,35.9c-10,10.5-23.5,9.4-35.9-2.3l-6.9-6.9l-21.7,22.7
		l-11.4-10.9L312.8,831.6z M315.1,852l-13.9,14.6l7.7,7.3c4,3.8,10.4,3.7,14.2-0.3c3.8-4,3.7-10.4-0.3-14.2L315.1,852z"/>
	<path class="st4" d="M401.6,950.4c-12.6,19-38.2,24.1-57.1,11.5c-19-12.6-24.1-38.2-11.5-57.1c12.6-19,38.2-24.1,57.1-11.5
		c0.1,0,0.1,0.1,0.2,0.1c18.8,12.1,24.2,37.1,12.1,55.9C402.1,949.6,401.8,950,401.6,950.4z M388.1,941.4
		c7.1-11.9,3.2-27.3-8.6-34.4c-11.9-7.1-27.3-3.2-34.4,8.6c-6.9,11.5-3.5,26.3,7.6,33.7c11.2,7.8,26.6,5,34.3-6.3
		C387.4,942.5,387.8,942,388.1,941.4L388.1,941.4z"/>
	<path class="st4" d="M433.7,923.2l18.5,7.8l10.5,65.2l21.6-51.8l14.6,6.2l-29.9,71.8l-18.5-7.8L440,949.2l-21.6,51.9l-14.6-6.2
		L433.7,923.2z"/>
	<path class="st4" d="M509.2,1011c2.6,6.4,8,11.2,14.6,13.1c4.5,1.8,9.6-0.4,11.4-4.9c0.2-0.4,0.3-0.8,0.4-1.3
		c3.1-14-32.2-18.1-26.3-43.8c3.3-12.5,16.2-20,28.7-16.6c0.3,0.1,0.5,0.1,0.8,0.2c10.4,2.3,19.1,9.3,23.6,18.9l-13.6,7.6
		c-2.1-6.1-6.9-10.9-13-13c-4.4-1.5-9.1,0.9-10.5,5.2c-0.1,0.3-0.2,0.6-0.3,0.9c-3.1,13.8,32.2,17.7,26.2,43.8
		c-3.5,14.2-16.5,20.2-30.4,17.1c-11-2-20.3-9.1-25.2-19.1L509.2,1011z"/>
	<path class="st4" d="M596.8,969.1l20.6,1.4l24.2,79.6l-16.7-1.1l-6.2-20.7l-30.9-2.1l-8.8,19.7l-16.7-1.1L596.8,969.1z
		 M614.8,1014.5l-8.7-29.9l-12.3,28.5L614.8,1014.5z"/>
	<path class="st4" d="M656,971.1l22.8-2.2c16.2-1.5,26.8,5.5,28,18.5c0.7,6.2-1.9,12.2-6.8,16c7.9,2.2,13.7,9,14.5,17.2
		c1.4,14.1-8.8,23.8-26.6,25.5l-24.7,2.3L656,971.1z M672.9,982.6l1.7,17.5l7.4-0.7c4.9,0.1,8.9-3.8,9-8.7s-3.8-8.9-8.7-9
		c-0.6,0-1.3,0.1-1.9,0.2L672.9,982.6z M675.9,1013.1l2,20.8l9.6-0.9c7.3-0.7,11.4-5,10.7-11.5c-0.6-6.5-5.4-9.9-12.7-9.3
		L675.9,1013.1z"/>
	<path class="st4" d="M722.9,962.9l15.3-3.6l14.8,61.7l28.7-6.9l3.4,13.9l-44.1,10.7L722.9,962.9z"/>
	<path class="st4" d="M778.1,948.5l42.3-16.2l4.7,12.3l-27.6,10.6l6.6,17.2l23.5-9l4.8,12.3l-23.5,9l7.2,18.5l27.6-10.6l4.7,12.3
		l-42.3,16.3L778.1,948.5z"/>
	<path class="st4" d="M941.8,320.3c27.3,104.9,1.9,212.5-142.6,228.8c1.9-1.4,3.8-3,5.7-4.7c-9.4,2.1-18.8,3.6-28.4,4.7
		c22.9-19,42.8-41.3,58.9-66.3c-35.1,45.9-80.4,82.8-132.4,107.9c0,0,76-46.5,68.9-61.2l-0.6-1.1c-27.1,25.2-57.7,46.2-91,62.3
		c0,0,76-46.5,68.9-61.2c-18-30.9-45-86.4,18.9-165c14.7-22.4,64-84.3,77-141.9c-167.2-114.7-395.7-72.2-510.5,95
		s-72.2,395.7,95,510.5c52.5,36,113.4,57.8,176.8,63.1c-0.1-13.1,0.5-26.2,2-39.3c8.7-39.2,34.9-74.6,58.6-86
		c15.6-7.5,50.3-15.6,55.5-51.5c4.5-33.2,3.1-49.4,14.2-59.5c12.7-11.6,19.5-2.1,20.4,9.1c0.4,24.3-0.7,48.6-3.3,72.8
		c-0.6,3.3,13,0.9,18.5-15.1c6.5-17.8,14-33.4,12.3-64.2c-1-15.5-1.5-28.9,3.4-34.7c2.7-3.1,10.8-3.3,10.8-3.3
		c1.8-7.6,4.6-15,8.2-22c2.5-3.5,7.3-4.3,10.8-1.8c0.4,0.3,0.8,0.6,1.1,0.9c2.5,3.6,5.1,1.5,6.7-2.6s9.9-21.8,16.5-25.5
		c5.7-3.1,9.5,0,9.7,16.4c0.3,22.5,0,53.4,0,62.5c0,6.9,5.6,5.6,7.8,4.3c2.2-1.3,18.5-26.3,41-27.8c0,0,13.3-2-2.2,15.7
		s-25.6,77.9-58.4,116.2c-32.8,38.3-52.1,57.3-120.7,96.2c-11.3,8.9-19.3,21.3-22.8,35.2c200-32.8,335.5-221.4,302.8-421.4
		C991.1,413.8,971.4,364.1,941.8,320.3z"/>
	<path class="st5" d="M356.3,381.9h12.3v80.2h37v11.2h-49.4V381.9z"/>
	<path class="st5" d="M413.3,456.7c0-9.9,7.6-17,21.5-19.3l22.2-3.7v-4.6c0.2-7.8-6-14.3-13.8-14.4c-0.7,0-1.4,0-2.1,0.1
		c-7.1-0.1-13.7,3.3-17.8,9.1l-8.4-6.2c6.3-8.2,16.2-12.8,26.5-12.3c16.7,0,26.7,9.8,26.7,24.3v44.2h-11.1v-8.3
		c-5.4,6.5-13.6,10.3-22.1,10.1C422,475.1,413.3,468,413.3,456.7z M436.8,466c8.3,0.2,16-4.1,20.2-11.2v-12.9l-19.5,3.3
		c-9,1.5-13,5.6-13,11.2S429.1,466,436.8,466z"/>
	<path class="st5" d="M518.5,475.9c-9,0.2-17.6-3.6-23.4-10.4v7.8h-11.4v-98h11.1v40c5.8-6.8,14.4-10.7,23.4-10.4
		c19.6,0.8,34.9,17.4,34,37c-0.8,18.5-15.6,33.3-34,34H518.5z M495.1,427.7v25.9c4.7,7.7,13.1,12.4,22.1,12.3
		c13.9-0.7,24.5-12.5,23.8-26.3c-0.6-12.9-10.9-23.2-23.8-23.8C508.2,415.6,499.8,420.1,495.1,427.7z"/>
	<path class="st5" d="M594.8,475.9c-19,0.8-35.1-14-35.9-33c0-0.8,0-1.7,0-2.5c0-19.9,12.8-35.5,33.2-35.5
		c15.3-1,28.5,10.6,29.5,25.8c0.1,0.9,0.1,1.8,0,2.7c0,2.4-0.3,4.8-0.8,7.1h-50.7c-0.8,13.1,9.1,24.4,22.3,25.3
		c0.8,0.1,1.6,0.1,2.4,0c7.8,0.1,15.3-3.5,20-9.8l8.2,6.2C616.4,471.1,605.9,476.2,594.8,475.9z M571,432.1h39.4
		c-0.1-9.9-8.1-17.8-18-17.8c-0.2,0-0.3,0-0.5,0C581.4,413.9,572.3,421.6,571,432.1L571,432.1z"/>
	<path class="st5" d="M633.8,375.3h11.1v98h-11.1V375.3z"/>
	<path class="st5" d="M357.4,510.9H389v155.5h-31.6V510.9z"/>
	<path class="st5" d="M432.5,623.7c7.9,11.4,20.6,18.4,34.4,19.1c12.3,0,20-6.7,20-17.8c0-28.6-70.7-20.9-70.7-73.5
		c0-24.7,20.4-45.1,50.2-45.1c21.1-0.1,41.1,9.6,54.2,26.2l-23.1,20.9c-9.1-11.8-19.3-19.6-30.9-19.6c-9.2-1-17.5,5.7-18.4,15
		c-0.1,0.5-0.1,1-0.1,1.5c0,28.2,70.6,20.2,70.6,73.5c-0.4,29.3-23.3,46.9-51.7,46.9c-22.2,1-43.5-8.7-57.5-26L432.5,623.7z"/>
	<path class="st5" d="M543.2,510.9h47.5c34.3,0,55.5,17.5,55.5,46.4c0.8,17.3-9.2,33.3-25.1,40.2l48.6,68.9h-37l-41.5-62.9H575v62.9
		h-31.5L543.2,510.9z M574.7,537.1v40.2h17.8c11.1,0.6,20.6-7.9,21.2-19c0.6-11.1-7.9-20.6-19-21.2c-0.7,0-1.5,0-2.2,0H574.7z"/>
	<path class="st6" d="M868.2,174.7c96.1,117.8,148.9,349.9-68.9,374.4c45.4-35,133.7-151.4,102.4-267.5
		C904.1,429.7,808,540,702.8,590.7c0,0,76-46.5,68.9-61.2c-18-30.9-45-86.4,18.9-165C809.6,335.8,885.7,241.7,868.2,174.7z"/>
</g>
</svg>
