<?xml version="1.0" encoding="utf-8"?>
<!-- Generator: Adobe Illustrator 23.0.6, SVG Export Plug-In . SVG Version: 6.00 Build 0)  -->
<svg version="1.1" id="Layer_1" xmlns="http://www.w3.org/2000/svg" xmlns:xlink="http://www.w3.org/1999/xlink" x="0px" y="0px"
	 viewBox="0 0 1248 1000" style="enable-background:new 0 0 1248 1000;" xml:space="preserve">
<style type="text/css">
	.st0{fill:url(#path3722_1_);}
	.st1{fill:#003DA5;}
	.st2{fill:#706F6F;}
</style>
<g>
	<title>Logo_LNDD</title>
	
		<linearGradient id="path3722_1_" gradientUnits="userSpaceOnUse" x1="74.2802" y1="-155.7284" x2="431.3489" y2="31.5387" gradientTransform="matrix(1 0 0 1 0 553.1102)">
		<stop  offset="0" style="stop-color:#F0E63C"/>
		<stop  offset="1" style="stop-color:#E6AF32"/>
	</linearGradient>
	<path id="path3722" class="st0" d="M187.4,695.5c-60.8-2.7-126.6-26.9-158.3-82.2c-29.6-52.2-14.4-118.1,19-164.7
		c53-75.4,139.8-122.6,229.4-139.1c68.7-12.2,146.1-5.5,202.2,39.5c38.1,30,55.3,81.6,45.1,128.7c-15.1,72.7-72,129.3-134,165.9
		C329.7,679.3,258.3,698.8,187.4,695.5L187.4,695.5z"/>
	<path id="path20" class="st1" d="M160.9,430.3c11.4,4.1,48.6,17.2,69.3,31.2c0.7,0.5,2,1.4,2,1.4l154.5-2.4
		c0.3-0.4,6-10.4,9.3-16.8c3.7-7.1,3.9-13.1-0.2-17.2c-4.5-4.4-11.9-5.1-26.8-5.1H161.8c-1.7,0-5.9-0.3-6.5,3.1
		c-0.2,1.1,0.1,2.3,0.9,3.2C157.5,428.9,159.2,429.8,160.9,430.3z"/>
	<path id="path22" class="st1" d="M471.5,469.1c-3.4,0.1-229.6,3.6-233.1,3.7c-1.9,0.1-2.4,0.5-2.4,2.5
		c-0.1,16.4-21.8,32.2-51.4,46.3c-31.2,14.9-70.3,29.7-90.7,37.2c-4.8,1.8-13.5,4.9-16.3,6.3c-2.2,1.1-3.8,2.9-3.1,4.9s3,3.1,10.7,1
		c3.5-0.9,7.4-1.9,11.6-3c39.1-10.2,110.6-28.1,180.3-45.5c72.2-18,143.3-33.6,195.4-43c4.1-0.7,7.5-3,7.3-6.1
		C479.8,470.5,476.4,468.9,471.5,469.1z"/>
	<path id="path24" class="st1" d="M285.6,570.2c0,0,10.2,0.3,17.6-4.2c11.9-7.2,27.6-20.2,49.9-51.5l-238.4,58.6L285.6,570.2z"/>
	<path id="path4" class="st2" d="M603.7,458.8h-16.8v77.1c-0.2,3.1,2.1,5.8,5.2,6c0.3,0,0.6,0,0.8,0h50.3l8-15.4h-47.4L603.7,458.8
		L603.7,458.8z"/>
	<path id="path6" class="st2" d="M713.6,458.1h-17.2L652.9,542H671l7.8-15.4h52.1l5.1,10.1c2.5,5,4.8,5.3,11.4,5.3h9.7L713.6,458.1z
		 M686.4,511.5l18.5-36.5l18.5,36.5H686.4z"/>
	<path id="path8" class="st2" d="M807.3,517.1v24.8h-16.8v-83.1c8.8-0.2,20.8-0.6,30.6-0.6c19.2,0,32.1,2.7,39.7,10.3
		c4.7,4.8,7.1,11.4,6.8,18.1c0,24-18.7,30.5-45.5,30.5C818.5,517.3,811.7,517.2,807.3,517.1z M807.3,501.7c4.2,0.1,9.6,0.1,13.3,0.1
		c10.8,0,20.7-0.3,26-5.6c2.4-2.5,3.7-5.8,3.5-9.3c0-2.8-1-5.6-2.9-7.8c-5.3-5.3-12.9-5.6-26.6-5.6c-3.7,0-9,0.1-13.3,0.1V501.7z"/>
	<path id="path10" class="st2" d="M977,500.4c0,23.8-18.7,43.2-50.2,43.2s-50.2-19.4-50.2-43.2c0-23.8,18.7-43.2,50.2-43.2
		S977,476.6,977,500.4z M926.8,472.3c-19.1,0-32.7,11.1-32.7,28.1c0,17,13.6,28.1,32.7,28.1s32.7-11.1,32.7-28.1
		C959.5,483.4,945.9,472.3,926.8,472.3L926.8,472.3z"/>
	<path id="path12" class="st2" d="M1062.1,466.5c-9.1-5.7-23.9-9.3-35.2-9.3c-21.1,0-37.7,11.1-37.7,26.6
		c0,29.1,57.3,18.3,57.3,35.6c0,7-10.5,10.1-19.4,10.1c-12-0.1-23.6-3.7-33.5-10.5l-8.6,12.8c10.4,7.1,27.2,11.9,40.6,11.9
		c20.9,0,38.4-9.7,38.4-26.1c0-29.5-57-20.3-57-36.4c0-6.8,9.4-9.7,19.6-9.7c9.8,0.1,19.3,3,27.5,8.4L1062.1,466.5z"/>
	<polygon id="polygon14" class="st2" points="1150.3,458.8 1070,458.8 1070,474.2 1101.5,474.2 1101.5,541.9 1118.3,541.9 
		1118.3,474.2 1150.3,474.2 	"/>
	<path id="path16" class="st2" d="M1160.9,458.8v77.1c-0.2,3.1,2.1,5.8,5.2,6c0.3,0,0.6,0,0.8,0h67.7v-15.4h-56.9v-19.3h50.8v-15.4
		h-50.8v-17.6h55.4v-15.4H1160.9"/>
</g>
</svg>
