<?xml version="1.0" encoding="utf-8"?>
<!-- Generator: Adobe Illustrator 23.0.6, SVG Export Plug-In . SVG Version: 6.00 Build 0)  -->
<svg version="1.1" id="Layer_1" xmlns="http://www.w3.org/2000/svg" xmlns:xlink="http://www.w3.org/1999/xlink" x="0px" y="0px"
	 viewBox="0 0 1248 1248" style="enable-background:new 0 0 1248 1248;" xml:space="preserve">
<style type="text/css">
	.st0{fill:#4A4A49;}
	.st1{fill:url(#SVGID_1_);}
	.st2{fill:url(#SVGID_2_);}
	.st3{fill:url(#SVGID_3_);}
</style>
<title>Logo_LNDD</title>
<g>
	<g id="Base">
		<path class="st0" d="M178.2,985.8h6.6l28.1,62.2h-7.4l-7.3-15.8h-33.6l-7.4,15.8h-7.1L178.2,985.8z M195.4,1025.4l-13.9-31.6
			l-14.2,31.6H195.4z"/>
		<path class="st0" d="M219.4,1039l4.3-5.1c5.6,5.6,13.2,8.8,21.2,8.7c8.4,0,13.7-4.4,13.7-10.4l0,0c0-5.8-3-9-15.8-11.8
			c-12.8-2.8-20.9-7.6-20.9-17.8l0,0c0.7-10.1,9.5-17.7,19.6-17c0.3,0,0.5,0,0.8,0.1c7.9-0.2,15.6,2.5,21.6,7.6l-3.9,5.5
			c-4.9-4.3-11.3-6.8-17.8-6.8c-8.1,0-13.3,4.4-13.3,10l0,0c0,5.8,3.3,9.2,16.9,12c13.6,2.8,20.1,8.1,20.1,17.5l0,0
			c0,10.6-8.8,17.5-21.2,17.5C235.3,1049.1,226.2,1045.5,219.4,1039z"/>
		<path class="st0" d="M273.3,1039l4.3-5.1c5.6,5.5,13,8.6,20.9,8.5c8.2,0,13.7-4.4,13.7-10.4l0,0c0-5.8-3.2-9-15.8-11.8
			c-12.6-2.8-20.7-7.6-20.7-17.8l0,0c0.7-10.1,9.5-17.7,19.6-17c0.2,0,0.4,0,0.6,0.1c7.9-0.2,15.7,2.5,21.8,7.6l-4.1,5.5
			c-4.9-4.4-11.3-6.8-17.8-6.8c-8.1,0-13.1,4.4-13.1,10l0,0c0,5.8,3.2,9.2,16.7,12s20.1,8.1,20.1,17.5l0,0c0,10.6-8.7,17.5-21,17.5
			C289.1,1048.9,280.1,1045.4,273.3,1039z"/>
		<path class="st0" d="M331.6,986.3h44.7v6.3h-37.6v21.2h33.6v6.3h-33.6v22.4h38.7v6.3h-45.8V986.3z"/>
		<path class="st0" d="M405,992.7h-20.7v-6.5h48.5v6.5h-20.7v55.3H405V992.7z"/>
		<path class="st0" d="M468,986.3h7.1l22.6,33.8l21.8-33.8h7.1v61.8h-7V998l-22.6,33.2l0,0l-22.6-33v49.9h-6.8L468,986.3z"/>
		<path class="st0" d="M565.5,985.8h6.5l28.3,62.2h-7.6l-7.3-15.8h-34.3l-7.3,15.8h-7.1L565.5,985.8z M582.7,1025.4l-14.1-31.6
			l-14.1,31.6H582.7z"/>
		<path class="st0" d="M610.2,986.3h6.6l38.9,49.6v-49.6h6.8v61.8h-5.5l-40-50.7v50.7h-6.8V986.3z"/>
		<path class="st0" d="M700.7,985.8h6.5l28.3,62.2h-7.6l-7.3-15.8H687l-7.3,15.8h-7.3L700.7,985.8z M717.9,1025.4l-14.1-31.6
			l-14.2,31.6H717.9z"/>
		<path class="st0" d="M742.6,1017.4L742.6,1017.4c0-17.4,14.1-31.6,31.6-31.6c8.5-0.3,16.7,2.6,23.1,8.2l-4.6,5.4
			c-5.1-4.7-11.8-7.3-18.8-7.1c-13.3,0.3-23.9,11.4-23.6,24.8c0,0.2,0,0.4,0,0.7l0,0c-0.5,13.2,9.7,24.3,22.9,24.8
			c0.4,0,0.8,0,1.1,0c6.5,0,12.8-2.2,17.8-6.2v-15.8h-18.8v-6.3h25.6v24.6c-6.9,6.1-15.8,9.5-25,9.5c-16.7,0.6-30.8-12.5-31.4-29.2
			C742.5,1018.6,742.5,1018,742.6,1017.4z"/>
		<path class="st0" d="M812.5,986.3h44.5v6.3h-37.4v21.2h33.6v6.3h-33.6v22.4h37.9v6.3h-45V986.3z"/>
		<path class="st0" d="M869.4,986.3h7.1l22.1,33.8l22.6-33.8h7.1v61.8h-7V998l-22.7,33.2l0,0l-22.6-33v49.9h-6.8L869.4,986.3z"/>
		<path class="st0" d="M944,986.3h44.7v6.3h-37.8v21.2h33.8v6.3h-33.8v22.4h38.2v6.3H944V986.3z"/>
		<path class="st0" d="M1001,986.3h6.6l38.9,49.6v-49.6h6.8v61.8h-5.5l-40-50.7v50.7h-6.8V986.3z"/>
		<path class="st0" d="M1085,992.7h-20.9v-6.5h48.7v6.5h-20.7v55.3h-7.1V992.7z"/>
	</g>
	<g id="PERIAL">
		<path class="st0" d="M35.5,652.8H0v-5.2h102c53.2,0,94.8,18.3,94.8,69.8s-47.4,69.7-91,69.7c-11.4,0.1-22.8-1.9-33.5-6v112.6h36.5
			v5.7H0v-5.7h35.5V652.8z M72,774c8.3,5,17.8,7.7,27.5,7.6c30.6,1.7,56.7-21.7,58.5-52.2c0.2-2.9,0.1-5.7-0.2-8.6
			c0-47.4-21.5-67.3-63.2-67.3H72V774z"/>
		<path class="st0" d="M242.9,652.8h-31.6v-5.2h190.8l4.3,60.8h-5.7c0-41.1-27.2-55.1-65.1-55.1h-56.2v115.2h26.9
			c37.1,0,40.8-22.4,40.8-45.6h5.7v94.8H347c0-27.2-3.6-43.6-41.1-43.6h-26.5v119.4h49c58,0,85.9-6.8,85.9-67.6h5.7v73.3H211.5v-5.7
			h31.6L242.9,652.8z"/>
		<path class="st0" d="M474.3,652.8h-35.7v-5.2h109.8c41.1,0,85.8,9.3,85.8,63.2c0,43.6-50.4,55.1-76.5,58.3l0,0
			c41.1,3.5,63.2,12.5,68.2,59.7l5.1,43.6c2.5,21.2,12.5,22.6,18.6,22.6c5.1-0.2,10.1-1.4,14.7-3.6l2.1,4.6
			c-9.4,3.3-19.3,4.9-29.2,4.7c-43.8,0-46.3-23.2-51.2-64.4l-2.5-21.5c-2.5-22.4-9-42.8-49.4-42.8h-23.2v120.8h36.5v5.7H438.6v-5.7
			h35.7V652.8z M510.8,766.6h17.8c42.3,0,67-14.5,67-56.1c0-28.6-9.6-57.7-60.5-57.7h-24.3V766.6z"/>
		<polygon class="st0" points="709.7,652.8 677.2,652.8 677.2,647.1 778.7,647.1 778.7,652.8 746.2,652.8 746.2,893.2 778.7,893.2 
			778.7,898.9 677.2,898.9 677.2,893.2 709.7,893.2 		"/>
		<path class="st0" d="M927.2,817.4h-76l-15.8,45c-2.6,7.1-4.2,14.6-4.7,22.1c0,5.1,4.3,9,15.8,9h18.6v5.7h-73.8v-5.7h11.4
			c11.1,0,15.8-1.1,22.6-21.2l76.9-230.6h3.9l87.2,251.5h29.7v5.7H917.9v-5.7H953L927.2,817.4z M888.7,703.4L888.7,703.4
			l-35.9,108.4h72.7L888.7,703.4z"/>
		<path class="st0" d="M1070.9,652.8h-35.7v-5.2h108v5.7h-35.9v239.9h44.7c68.7,0,90.2-9,90.2-76.6h5.7v82.3h-212.8v-5.7h35.7V652.8
			z"/>
	</g>
	<g id="logotype">
		
			<linearGradient id="SVGID_1_" gradientUnits="userSpaceOnUse" x1="384.7838" y1="797.3761" x2="878.2421" y2="797.3761" gradientTransform="matrix(1 0 0 -1 0 1247.7795)">
			<stop  offset="0" style="stop-color:#005A9A"/>
			<stop  offset="0.6" style="stop-color:#005A9A"/>
			<stop  offset="1" style="stop-color:#032D59"/>
		</linearGradient>
		<path class="st1" d="M831.8,354.6H826c-64.9,9.7-128.8,25.2-191,46.3h-1.1h-1.4h-1.7l0,0h-1.3c-87.8,29.7-169.4,75.2-240.7,134.4
			l0,0l-4.6,4.1h1.1l0,0h1.7l0,0c0.9,0.3,1.5,1.1,1.7,2.1l0.8,1.4l-1.3,1.4c-0.5,0.5-1.1,0.8-1.7,0.9l0,0c-0.2,0.4-0.6,0.8-1.1,0.9
			l0,0h0.8l2.2-1.1l8.2-3.8c128.8-61.5,267-101,408.8-117c0.9-5.4,7.3-7.1,7.7-8.1s3.6-1.7,5.5-2.1c1,0.2,2.1,0.2,3.2,0h1.9
			c18.2,1,35.9-6.1,48.5-19.3l0,0l0,0l0,0l0,0v-0.9c4.3-5.6,5.2-13,2.2-19.4c-7.3-11.7-31.6-16.7-42.6-16.7h-1.9"/>
		
			<linearGradient id="SVGID_2_" gradientUnits="userSpaceOnUse" x1="352.0736" y1="883.0856" x2="865.4346" y2="883.0856" gradientTransform="matrix(1 0 0 -1 0 1247.7795)">
			<stop  offset="0" style="stop-color:#005A9A"/>
			<stop  offset="0.6" style="stop-color:#005A9A"/>
			<stop  offset="1" style="stop-color:#032D59"/>
		</linearGradient>
		<path class="st2" d="M786.8,283.2L786.8,283.2 M786.8,281.6c0,0,0,1.4,0,1.6c4-0.2,8-0.8,12-1.6c7.6-1.3,15.8-2.5,19.3,0
			c-2.2,1.4-4.8,2.3-7.4,2.5c-10,2.1-20.5,3.5-31.6,5.2l0,0c-26.2,2.5-52,7.2-77.4,14.1c-57.4,15-113.7,33.7-168.7,55.9l0,0
			c-49.1,19.1-96.6,42-142.2,68.6c-6.8,3.9-14.1,7.3-20.9,10.9c-3,1.6-17.4,8.1-17.8,11.5c-0.5,3.5,12.2,0,14.8,0
			c4.8-0.5,9.6-0.5,14.4,0c6.9-0.6,13.5-2.7,19.4-6.2l0,0c1.3,0,2.2,0,3.6-0.9c3.8-1.1,7.3-3.2,11.1-4.6h1.9h1.7l0,0l0,0l0,0l0,0
			c1.7,0,2.8,1.3,4.1,2.1c1.3,0.8,1.7,0,1.9-0.9c2.7-1.2,5.6-2,8.5-2.4h7h1.3c1.4,0.1,2.9-0.2,4.1-0.9l0,0c1.1-0.2,2.1-0.6,3-1.1
			l0,0c0,0,2.1,0,2.4,0l0,0c0,0,1.4,0,1.6,0h1.1c3.3-1.7,13.6-3.8,15.8-6.3l0,0c1.3,0,2.7,0,2.8-1.7l0,0c1.7,0.4,3.5,0,4.9-0.9
			c3.9,4.3,21.5-5.4,22.6-5.8c0.7,0.4,1.4,0.8,2.2,1.1c5.8-3.5,11.4-7.3,16.9-11.2c-3.1,1.5-6.4,2.5-9.8,3l6.8-5.8
			c0-0.8,1.7-1.3,2.1-2.4c21.6-9.3,76-31.6,146.3-54.3c43.6-11.5,140-37.4,175.2-46.1l6.2-1.6l0,0c3.3-0.5,6.5-1.7,9.3-3.6
			c1.8-0.8,3.6-1.8,5.2-3c3.2-2.2,4.9-4.3,2.8-8.1c-1.8-3.6-4.6-6.6-8.1-8.7c-2.5-1.1-5.1-1.9-7.7-2.2c-5.2,0-10.6,0-15.8,0h-2.2
			c-14.9,0.9-29.6,3.4-43.9,7.6"/>
		
			<linearGradient id="SVGID_3_" gradientUnits="userSpaceOnUse" x1="384.7515" y1="962.4563" x2="837.141" y2="962.4563" gradientTransform="matrix(1 0 0 -1 0 1247.7795)">
			<stop  offset="0" style="stop-color:#005A9A"/>
			<stop  offset="0.6" style="stop-color:#005A9A"/>
			<stop  offset="1" style="stop-color:#032D59"/>
		</linearGradient>
		<path class="st3" d="M767.2,199c-22.4,0.9-44.7,3.2-66.8,7.1c-60.4,11-118.5,32.4-171.7,63.2c-40.3,21.5-31.6,17.7-72.8,42.8
			c-14.5,9-35.7,26.2-49.4,36.2c-2.4,1.7-22.6,19.3-21.6,22.6c0.9,3.3,12.6-5.2,15.8-6.6l5.8-3.8l6.8-4.4c2.7-2.1,10-6.8,13-8.5
			c3-1.7-1.9,3.2-7,7.9s-10.1,9.8-6.8,7.9l15.8-10.1c32.2-17.6,65.4-33.1,99.5-46.6c91.1-37.9,187.9-60.5,286.4-66.8H811
			c8.7,0,17.3-2.6,24.5-7.6c6.3-7.1-2.1-22.6-7.1-26.1c-7.9-4.1-16.8-6-25.7-5.4c-11.2,0-21.5-1.7-32.5-1.7h-2.2"/>
	</g>
</g>
</svg>
