<?xml version="1.0" encoding="utf-8"?>
<!-- Generator: Adobe Illustrator 23.0.6, SVG Export Plug-In . SVG Version: 6.00 Build 0)  -->
<svg version="1.1" id="layer" xmlns="http://www.w3.org/2000/svg" xmlns:xlink="http://www.w3.org/1999/xlink" x="0px" y="0px"
	 viewBox="0 0 1248 1248" style="enable-background:new 0 0 1248 1248;" xml:space="preserve">
<style type="text/css">
	.st0{fill:#77879F;}
</style>
<g>
	<path class="st0" d="M543.9,851.1l15.2,45.2l15.2-45.2h12.3l-21,57.2h-13.9l-21-57.2H543.9z"/>
	<path class="st0" d="M630.9,849.7c7.5-0.4,14.8,2.3,20.2,7.7c5,6,7.7,13.7,7.7,21.6c0.4,8.3-2.3,16.2-7.3,22.9
		c-5.4,5.4-13.1,8.3-20.8,7.9c-7.5,0.4-15-2.5-20.4-7.7c-5-6-7.5-13.7-7.1-21.4C603.4,865.3,610.3,849.7,630.9,849.7z M620.5,896.1
		c2.5,3.1,6.5,5,10.4,4.6c4.4,0.4,8.3-1.7,10.8-5.4c2.9-4.8,4.2-10.4,3.7-16c0-3.5-0.4-6.9-1.5-10.2c-1.5-6-6.9-10.2-13.1-10.2
		c-4.2-0.2-8.1,1.7-10.6,4.8c-5.6,10.2-5.6,22.7,0,32.9L620.5,896.1z"/>
	<path class="st0" d="M688.9,851.1l11.9,26.2l12.1-26.2h12.7l-19.4,36.4v20.8h-12.5v-21.4l-19.1-35.8H688.9z"/>
	<path class="st0" d="M768.8,850.9l20,57.4h-12.5l-4.2-12.5h-22.9l-4.4,12.5h-11.7l20.8-57.4H768.8z M768.8,886.7l-7.7-24.6
		l-8.5,24.8L768.8,886.7z"/>
	<path class="st0" d="M850.4,868.6c0-2.1-0.6-4-1.7-5.8c-2.3-3.1-5.8-4.8-9.6-4.4c-13.9,0-16.9,13.1-16.9,21.8
		c-0.2,5.4,1.5,10.8,4.8,15.2c3.5,3.7,8.5,5.4,13.5,5c3.1,0.2,6.2-0.2,9.4-1v-12.3h-11V878h23.5v28.7c-6.7,2.3-13.9,3.3-21,3.1
		c-8.7,1-17.7-1.9-24.3-7.7c-5.2-5.8-8.1-13.5-7.7-21.4c-1.5-15.6,9.8-29.5,25.6-31.2c1.7-0.2,3.3-0.2,5,0
		c7.3-0.4,14.4,2.3,19.6,7.3c2.9,3.3,4.4,7.7,4.2,12.1L850.4,868.6z"/>
	<path class="st0" d="M892,850.9h38.1v9.4h-26.2V874h24.6v9.4h-24.6v15.2h27v9.6h-39.1v-57.2H892z"/>
	<path class="st0" d="M969.8,850.9v35c0,6.2,0.4,14.1,12.5,14.1c4.4,0.4,8.5-1.7,11-5c1.7-2.9,2.3-6.5,1.9-9.8v-34.3h12.1v35.8
		c0,17.1-13.5,22.9-25.2,22.9c-8.5,0.6-16.6-3.1-21.6-10c-2.5-4.4-3.5-9.4-2.9-14.1v-34.3L969.8,850.9z"/>
	<path class="st0" d="M1036,850.9h22.1c6-0.8,12.3,0.6,17.5,4c3.1,2.7,5,6.9,5,11c0,7.1-5,12.9-12.1,14.1c8.7,0.8,9.4,5.6,10.4,13.1
		c0.4,3.7,1,7.5,1.7,11c0.2,1.5,0.8,2.9,1.7,4.2h-13.5c-0.6-3.1-2.3-17.7-3.1-20c-0.8-2.3-4.2-3.3-6.2-3.3h-10.8v22.9H1036V850.9z
		 M1048.1,875.9h10c2.3,0.2,4.4-0.4,6.2-1.7c2.1-1.5,3.3-4.2,3.1-6.7c0.2-2.5-1-5-3.1-6.5c-2.5-1.2-5.4-1.7-8.1-1.5h-8.3
		L1048.1,875.9z"/>
	<path class="st0" d="M1116.1,890c-0.8,5.2,2.5,10,7.7,10.8c0.8,0.2,1.9,0.2,2.7,0c6.7,0,10.8-3.1,10.8-7.9s-3.5-6-10.8-7.7
		c-13.7-3.3-21-7.7-21-17.5s6.9-17.9,22.9-17.9c6.5-0.4,12.9,2.1,17.3,6.9c2.3,3.1,3.5,6.9,3.3,10.6h-11.9c0.2-4.8-3.5-8.7-8.3-8.7
		c-0.4,0-0.6,0-1,0c-5.6,0-9.4,3.1-9.4,7.7c0,4.6,4.2,6.2,12.5,8.3c10,2.3,19.8,5.2,19.8,16.2s-8.9,18.9-24.8,18.9
		c-22.1,0-22.3-14.1-22.3-19.8H1116.1z"/>
	<path class="st0" d="M1247,349.7c0,0-6.2-7.7-5-4.6c1.2,4,1.7,8.1,1.2,12.3c-0.8,11.4-3.3,22.7-7.1,33.5
		c-7.5,21.6-16.6,42.7-27.3,62.8c-22.1,40-51.2,75.7-85.7,105.5c-3.1,2.7-6,5.2-9.2,7.7c-3.3-1-6.7-1.9-10-2.5h-2.5
		c-4-1.2-8.1-2.3-12.5-2.9c-17.1-3.5-34.7-3.5-51.8,0c-4.8,1.2-47.9,12.7-57.2,31c-3.5,5.6-3.5,12.9,0,18.5
		c4.6,5.4,10.8,9.2,17.7,10.4c18.1,9.4,38.1,5.4,55.8-2.7c22.9-9.2,43.9-22.3,62.2-38.7c19.1,10.8,33.3,28.9,38.9,50.1
		c1.2,5.2,1.7,10.6,1.7,16c-0.4,20.6-9.2,40-23.9,54.1c-30.6,32.5-57.2,50.6-80.9,55.6c-21.4,5.6-44.3-0.2-60.1-15.6
		c-6-8.7-9.2-19.1-8.5-29.8c-0.4-22.5,5.6-44.7,17.7-63.9c1.5-2.3,3.1-4.6,4.8-6.9l1.2-1.7c-1.5-2.9-3.7-5.4-6.7-6.9
		c-0.2-0.2-0.2-0.4-0.4-0.6c-0.6-0.4-1.7-0.6-2.5-0.6c-1-0.2-2.1-0.4-3.1-0.6c-5.6,2.7-10.8,6.2-15.2,10.8c-2.9,2.7-5.6,5.4-8.5,8.1
		c-8.3,6-16.2,12.5-23.7,19.6c-18.7,17.1-38.9,32.3-60.1,45.8l-6.9,5.2c-6.2,5-13.1,10.6-18.9,9.8c-5.6-0.8-5.8-0.8-7.1-4.8l-2.1-6
		c-2.3-6-4.2-12.3-5.8-18.5c20-19.1,37.7-40.4,52.9-63.5c12.3-20.2,24.3-42.9,22.9-68.7c-0.4-6.5-2.1-12.7-5-18.3l-2.1-4.4
		c-1-0.6-2.3-1-3.3-1.5l-1.7-3.1c-8.1-3.7-4.8-0.8-7.7-1.7c-2.7-0.8-6.2,0.6-9.4,1c-12.5,3.1-23.5,9.8-32,19.4
		c-10.2,13.1-17.7,28.3-22.3,44.3c-5.4,14.1-8.5,28.9-9.4,43.9c0.2,9.4,1,18.7,2.9,27.9c0,5,0.8,10,1.2,14.8l-2.3,2.3
		c-16.6,14.8-36,26-57,33.1c-4.8,1.5-10,2.5-15.2,3.5c1-4.4,1.9-8.7,2.5-13.1c11-25.8,5.2-55.3-5.6-78.7c-10-24.1-26-45.4-46.6-61.6
		c0.2-4.6-0.8-9.2-3.1-13.1c-2.1-5.6-6.9-9.8-12.7-10.8c-2.7-7.7-8.5-13.9-16-17.1c-13.9-3.3-28.5-2.7-42,2.1
		c-6,0.6-18.3,11-11.9,22.5c8.1,9.6,14.8,8.1,21.4,10.2h1.5c-0.6,2.1-1,4.4-0.8,6.7c0,7.3,1,14.6,3.3,21.4c4,10.4,7.1,21,9.4,31.8
		c-10.8,15.8-22.5,31.2-35,45.8l0,0l-1.2,0.6c-1.9,0.2-3.7,0.2-5.6,0l-7.7-1.7c-3.3,3.3,6.9-7.7-7.7,7.7l0.4,0.8l1,1.7l1.2,1.7
		c-0.6,0.8-0.8,1,0,0l0.8,1c1,1.9,3.3,2.3,5.6,2.9c-14.6,15.8-30.4,30.4-47,43.9c3.1-4.4,5.4-9.2,7.1-14.1
		c16.2-21.8,5-54.5-15.2-68.7c-9.2-20.8-25-43.3-52.2-44.3l-2.3-4.6c3.1-3.1,1.7-2.1-1,0c0-0.6,0-1-0.4-1.7
		c0.6-4.6,1.2-9.2,1.5-13.9c-0.2-7.7-2.3-15-6.5-21.4c-2.1-3.3-5-6.2-8.1-8.5l-4.6-2.1c1-1-15.2,5.2-8.3,3.3l-0.4,1.2l-1,2.7
		c-3.1,8.3-3.3,17.5-0.4,25.8c-2.1,11,0,22.5,6,31.8c1.5,2.1,3.1,4,5,5.8c-0.6,1.7-1.2,3.3-1.7,4.8c-9.8,24.1-22.3,47.2-37.2,68.7
		l-3.7,5c-7.5,9.2-15.4,17.9-23.9,26.2c-18.3,16.6-41.2,36-63,31.2c-1.5-0.4-2.7-1-4-1.7c1.7-16.2,2.1-32.7,0.8-48.9
		c-1.9-19.8-5.8-39.1-12.1-57.8c0.4-4,0.8-8.1,0.8-12.3c0-0.6,0.6-1.2,0.8-1.9l3.7-9.4l0.8-2.5l0.4-1.2c1.2,1-7.7-14.4-4.8-7.7
		c-1.2-0.4-2.3-0.6-3.5-0.6c-1.7-6.7-4.6-12.7-8.7-18.3c1.7-0.8,1-0.8,0,0l-0.8-1.5l-1.7-2.3c-20,8.7-5.4,3.1-10,5.4v1.2l0.4,4.8
		l0.8,9.8c0,1.2,0,2.3,0,3.5h-6.7v1.2c0,1-0.6,2.1-0.8,3.1c-0.2,1-1.5,0,0,0c-0.6,2.3-1.2,4.6-1.5,6.9c-1,6.7-1.9,13.3-2.3,20.2
		c0,3.1,0,6.2,0,9.2c-8.9,15.8-20.4,30-34.1,42c-9.6,8.7-19.8,16.9-30.6,24.3c-5.4,3.7-10.6,7.1-16.2,10.2l-4.2,2.3l-2.1,1
		c1.5-3.5-0.6,0.6-2.3,4c-1.7-1.5-3.3-2.9-4.8-4.4c-2.1-2.9-3.7-6-4.8-9.4l0,0l1-2.1c1.2-6.9,3.1-13.9,3.7-20.8
		c1.7-34.3-0.4-68.7-6.2-102.6c2.9-23.7,2.1-47.6-2.5-71c18.7-1.5,37.5-3.1,56.4-4.2c84.7-6.2,169.6-11,254.5-17.5
		c76.8-7.7,153.1-16.2,229.5-27.7c-74.3,7.7-148.8,12.1-223.1,15.6c-85.9,6.5-172.1,11.4-258,17.7c-20.2,1.2-40.6,2.9-61,4.6
		c-3.5-24.3-6.2-47.9,0-70.1l-6.7-2.5l-0.8-8.5l-0.4-5.2l0,0c-4.8,0,9.6,0-8.3-0.4c0-1.7,0-3.3,0-5l-11.4,0.8
		c0.8,31.2,0,62.6-2.5,93.6c-56.2,5.2-112.6,6.2-169,2.9v11.9c56.2,3.1,112.4,1.9,168.3-3.5c-1,19.1-2.3,38.1-2.3,57.6
		c-0.8,27.7,1.2,55.3,6,82.6c2.5,13.9,7.1,27.5,13.1,40.2c1.5,3.3,3.3,6.5,5.4,9.4l1,1.7c3.3,13.1,11.9,24.3,23.5,31l3.1,0.6
		c0,0,0,0.6,0.6,0.8c15.2,15.2,33.1,3.1,43.3-2.5c11.4-7.3,22.1-16,31.6-25.8c5.4-5.6,10.4-11.7,14.8-18.3c1,5.6,2.5,11.4,4.2,17.1
		c1,4,2.5,7.7,4.2,11.7c1.2,11,2.7,22.1,4.6,33.1c1,6.7,2.3,12.9,4.2,19.8l1.7,5.2l0.6,1.5c4.8,0-10,2.3,11,0l0.6-2.5l2.7-9.8
		c0.8-3.5,1.5-7.7,2.3-10.8c5.2,2.7,11,4.2,17.1,4.4c0,3.7,0,6.2,0,3.1c0,0,0-0.6,0-1h7.7c6.9,0.2,13.7-0.2,20.4-1.2
		c13.7-1.7,27-5.8,39.3-12.1c36.6-18.1,59.3-53.3,68.7-92.2c4-8.3,7.1-17.1,9.4-26c0.8-3.3,1.2-6.7,1.5-10.2l1.2,0.6
		c12.3,3.5,23.9,8.5,34.7,15.2c3.1,8.1,5.6,16.4,7.7,25c2.9,11.4,3.3,23.3,1.2,34.7c-8.9,7.3-19.6,11.9-31,13.7
		c-6,1.2-12.3,1.9-18.5,1.9h-3.3c0,0,0,0-0.4,0c-1.2,0-2.5,0-3.7,0l-6,1l-2.9,1l-1.5,0.6c-1.7,3.3,1.7-6.9-4,7.7
		c1.5,3.3,3.3,6.7,5.4,9.8c4.4,6.9,11,11.7,18.9,13.5c32,2.7,52.9-18.3,73.2-33.9c16.9-14.8,32.7-30.8,47.4-47.6
		c19.6-4,35.2-18.7,40.2-38.1c6.7-7.7,12.7-15.8,18.5-24.1c8.1,6,16.9,10.6,24.8,15.6c23.3,11.7,37.2,34.7,26,58.3
		c-9.8,22.9-28.3,41-51.4,50.1c-12.3,2.3-25,2.7-37.5,0.8c-6.9-0.6-13.7-0.6-20.6,0c-3.7,0.2-7.3,1-10.8,2.1h-1.5
		c-1,4.6,0.6-9.4-2.9,10l2.1,1.5l4.4,3.1c23.3,17.3,55.3,17.3,80.7,7.1c1.5-0.6,2.9-1.2,4.2-1.9c9.8,3.5,14.4,0,20.2-1.7
		c11.9-4.4,21.8-13.1,27.5-24.6c1-2.3,8.1-2.5,8.1-2.5c12.1-2.1,23.9-5.6,35.2-10.6c14.8-6.5,28.5-15.2,41-25.4
		c1.9,8.5,4.4,16.9,7.7,25c1.7,4.6,4.8,8.5,8.7,11.4c2.5,4.2,7.3,6.5,12.1,6c6.2-1.5,12.1-4,17.3-7.7c19.6-13.7,37.9-28.9,54.7-45.8
		c16.2-15.2,32.9-30.6,48.7-45.8c-2.3,5-4.2,10-5.8,15.2c-6.9,11.7-11,24.6-12.1,38.1c0,6.2,1.2,12.5,3.7,18.3
		c6.5,16.4,18.9,29.5,35,36.8c16.4,8.7,35,12.5,53.3,10.6c49.1-4.8,87.6-44.3,104.7-88.4c9.4-22.5,10-47.9,1.7-70.7
		c-4-10-10.2-18.9-18.3-26c-6.9-6.5-15-11.4-23.7-14.8c35.8-30.2,66-66.4,89.1-107c11-20.8,20.6-42.7,28.3-64.9
		c4-11.2,6.7-22.9,7.7-34.7C1248.7,358.4,1248.2,353.8,1247,349.7 M183.9,501.3c0-0.4,0-0.8,0-1c0,7.7,0.6,15.2,0.8,23.3h-2.5
		C182.7,515.9,183.1,508.6,183.9,501.3 M191.4,604.8c-2.9,25.6-4.4,51.4-4.6,77.2c-2.3-12.7-4-25.4-4.8-38.1
		c-2.7-36.2-2.7-72.4-0.4-108.8h3.7c0,0.8,0,1.5,0,2.1c0.8,22.3,3.5,44.5,6.2,66.6c0,0.4,0,0.8,0,1.5 M198.1,686.9
		c0-4.4,0-8.5,0-12.9c0,5.6,0,11.4,0,16.9C198.1,689.4,198.1,688.2,198.1,686.9 M225.8,749.6v-0.6c11-6,21.6-13.1,31.6-20.8
		c11.7-8.9,22.7-18.9,32.9-29.8c-2.9,4.2-6,8.3-9.2,12.3C266.1,728.8,246.8,749.6,225.8,749.6 M278.4,731.1l7.7-8.5
		c6.7-7.9,12.7-16.4,18.5-25c-6.9,12.5-15.8,23.9-26.4,33.5 M333.5,777.5L333.5,777.5c-0.6-2.9-1-5.8-1.5-8.7c0.8,1,1.7,1.9,2.5,2.9
		c0,1.9-0.4,3.7-0.8,5.6 M337.1,750c-3.1-4.2-5.8-8.7-7.7-13.7c-0.4-1.5-0.6-2.9-1-4.4c-0.8-5.6-0.8-11.2,0-16.6
		c0.6-11.4,2.1-22.9,4-34.3c1.2,6.5,2.3,12.9,3.1,19.4c2.1,16.4,2.5,33.1,1.5,49.7 M485.2,610.8v1c-0.6-1-1.2-2.3-1.9-3.5l2.1,2.3
		 M482.1,585.2c0,1,0.6,2.1,1,3.1l-1-2.5V585.2 M457.8,735.8c-8.3,9.4-18.1,17.5-29.1,23.5c10.6-7.3,20.6-15.4,29.8-24.3
		L457.8,735.8 M486.5,677.6v0.4c-11.9,22.9-28.1,43.1-47.6,59.7c-5.2,4.4-10.8,8.7-16.4,12.7c16.2-18.1,30.2-38.1,41.6-59.5l2.5-4.4
		l1.2-2.3l0.6-1c4.4,2.5,1.7,0.6-1.9-1.9c9.6-15.2,17.7-31.4,23.7-48.5l0.6,0.6c0.6,14.8-0.8,29.8-4,44.1 M505.8,735.4L505.8,735.4
		C506.2,734.6,506.2,734.8,505.8,735.4 M495.4,746.5h2.7c0.8,0.6,1.7,1,2.7,1.5c0,1.5-0.4,2.1,0,1.7l0,0c-0.4,1.9,0,0.8,0,0l0,0h2.3
		l2.7,0.8h1h0.6h1.2c-0.6,3.3,0,2.5,0.6,0c2.9,0.6,5.8,1.2,8.7,1.5c2.5,0.2,5,0.2,7.7,0c1.5,0.4,2.7,0.6,4.2,0.8
		c-13.9,5.4-27.7,5.6-34.3-7.7 M665.6,615.2c-3.1-10.4-7.7-20-9.2-29.3c0-0.8,0-1.7-0.4-2.5c3.7,8.5,8.3,16.9,13.5,24.6
		C668.3,610.4,667.1,612.9,665.6,615.2 M675.4,595.6c-4.6-7.3-8.5-15-12.3-22.9l8.9,1c-0.6,7.3,0.8,14.6,3.7,21v0.8 M675.8,562.7
		c-3.7-0.4-7.7-0.8-10.6-1.5c-11.4-0.8-22.5-3.3-33.1-7.7c-2.1-8.3,46.4-17.7,49.7,1.5c-2.5,1.9-4.6,4.4-6,7.3 M708.5,750.6
		c-1.5,3.3-6.2,5.6-7.7,10.4c-6,2.7-12.5,5-19.1,6.5c-11.7,3.1-23.9,3.1-35.6,0c-5.4-1.2-10.4-3.3-15.2-6
		c21.2-1.7,47.2,7.7,71.2-6.7c4-2.3,7.7-5,11.2-7.7c-1.7,1.2-3.1,2.7-4.6,4.2 M1030.8,616.6c-11.2,1-22.7,0-33.7-3.1
		c-1.5-4.2-1-8.5,1-12.3c6-9.6,15.4-16.4,26.2-19.6c21.6-7.1,44.3-10.4,67-10c1,0,2.1,0,2.9,0c3.5,0.8,7.1,2.1,10.6,3.5
		c-11.4,9.4-23.3,17.9-35.8,25.8c-5.8,4.2-11.9,7.7-18.3,10.8C1044.5,614.3,1037.9,615.8,1030.8,616.6 M987.7,596.8
		c2.5-3.7,5.8-7.1,9.8-9.4c-5.8,5.6-8.9,13.5-8.5,21.6c-0.6-0.6-1.5-1.2-1.9-1.9C986.5,606.2,984.4,603.3,987.7,596.8 M907.2,557.7
		v0.4c1.5,8.5,1,17.1-1,25.4c-10.6,37-36,68.7-63.5,96.5c-1.7-24.6,1-49.3,7.7-73c5-17.1,21.6-43.9,37.5-51.6
		c3.5-1,6.9-2.7,10.6-3.5C901.8,553.4,904.7,555.2,907.2,557.7 M694.3,565.6l0.6,1.2h-0.6V565.6z M689.8,597.3l-0.4,0.8l-1.5-2.3
		c2.1-5.4,3.5-10.8,4.8-16.4c1.2,0.6,2.5,1.5,3.7,2.3c-0.6,5.6-2.9,11-6.7,15.2 M713.3,621.6c-5.8-4.8-11.2-9.8-16.4-15.2
		c1-2.1,2.3-4,3.3-5.8c2.1-4,4-8.1,5.4-12.3l6,5.4c17.3,17.9,30.4,39.7,38.1,63.5c-9.8-14.8-24.8-25-36.6-35.6 M737.2,748.9
		c-2.9,4-6.7,7.1-11,9.4c4-3.1,7.7-6.2,11.2-9.8v0.4 M735.8,733.8c-6.9,2.1-13.3,5.4-19.1,9.4c16.6-13.3,28.5-31.6,33.7-52.2
		c0.6,5.4,0.6,10.8,0.4,16.2c-2.1,7.1-5.4,13.7-9.8,19.8C739.5,729.2,737.6,731.7,735.8,733.8 M855.6,738.1c-0.4-1-0.8-2.1-1.2-3.1
		c1.2,0,2.7,0.6,4.4,0.8c2.5,0.2,5.2,0,7.7-0.6C863.1,737.3,859.4,738.3,855.6,738.1 M1078.5,755.4c-2.9,1-5.6,2.1-8.5,2.9
		c20.6-8.9,42.9-26,67.8-52.2c1.5-1.7,2.7-3.1,4.2-4.8C1126.9,725.4,1104.7,744.4,1078.5,755.4 M1146.3,590.8
		c8.5,9.8,13.7,21.8,15.2,34.5c-5.4-18.7-16.6-35-32.3-46.6c5,2.5,9.8,5.4,13.9,8.9C1144.2,588.7,1145.5,589.8,1146.3,590.8"/>
	<path class="st0" d="M320.2,569c1,1.2,2.9,1.2,4.2,0.2c0.4-0.4,0.6-0.8,0.8-1.2c1.5-3.5,2.5-7.1,3.1-10.8c1.2-4.8,3.3-9.2,6-13.3
		c1.5-2.1,0.6-7.1,0.6-9.4c0-0.6-0.4-6.2-0.8-5.4c-3.5,6.9-6,14.1-7.7,21.6c-0.2,1-0.6,1.9-1.2,2.9c0.2-2.7,0-5.6-0.4-8.3
		c-0.8-5-8.1-2.9-10.6-1c-2.5,1.9-1.5,9.2-0.8,13.1c-3.1,0.6-6.2,1.5-9.4,2.3c-2.7,1.2,0.8,15.2,0,15.2c5.2-2.5,12.7-2.3,17.1-5.8"
		/>
	<path class="st0" d="M868.3,494.3l-0.6,1l-0.4,0.6l0,0l0,0l8.9,7.1l0,0l1.7-1.5l3.7-2.9c5.8-3.5,11.4-7.5,16.6-11.7l-7.7-8.7
		c4.2-6.7,8.5-13.1,12.7-19.6c14.8-21.2,31-41.6,47.4-62c13.7-19.4,27.5-38.9,40.2-58.7c-15.6,16.9-31.6,33.3-47.9,49.7
		c-16.6,20.8-33.3,41.6-48.5,63.7c-7.7,11-15.2,22.1-21.6,33.9l-5,8.7l0,0c-2.5-2.1-1.9-1.5,0,0"/>
</g>
</svg>
