<?xml version="1.0" encoding="utf-8"?>
<!-- Generator: Adobe Illustrator 23.0.6, SVG Export Plug-In . SVG Version: 6.00 Build 0)  -->
<svg version="1.1" id="Layer_1" xmlns="http://www.w3.org/2000/svg" xmlns:xlink="http://www.w3.org/1999/xlink" x="0px" y="0px"
	 viewBox="0 0 1248 1000" style="enable-background:new 0 0 1248 1000;" xml:space="preserve">
<style type="text/css">
	.st0{clip-path:url(#SVGID_2_);}
	.st1{fill:#1D1D1B;}
</style>
<g>
	<g>
		<defs>
			<rect id="SVGID_1_" x="31.5" y="344.1" width="1185" height="311.8"/>
		</defs>
		<clipPath id="SVGID_2_">
			<use xlink:href="#SVGID_1_"  style="overflow:visible;"/>
		</clipPath>
		<g class="st0">
			<path class="st1" d="M444.8,432.9c-1.1,0.9-2.8,2-4.8,3c-2,0.9-4.2,1.8-6.8,2.6c-2.4,0.7-5,1.3-7.7,1.8c-2.8,0.6-5.1,0.7-7.4,0.7
				c-6.6,0-12.5-1.1-17.8-3.1s-9.7-5-13.6-8.5c-3.7-3.7-6.6-7.9-8.6-12.9s-2.9-10.3-2.9-16.1c0-6.8,1.1-13.1,3.3-18.5
				c2.2-5.5,5.3-10.2,9.2-13.8c3.9-3.7,8.5-6.6,13.4-8.7c5.1-2,10.5-3,16.2-3c4.8,0,9.2,0.6,13.4,1.7c4.2,1.1,7.7,2.6,10.8,4.4
				l-3.7,10.2c-1.5-0.9-3.5-1.8-5.7-2.6c-2.2-0.7-4.6-1.5-7-1.8c-2.4-0.6-4.6-0.7-6.6-0.7c-4.8,0-9.2,0.7-13.2,2.2
				c-3.9,1.5-7.4,3.7-10.1,6.5c-2.8,2.8-5,6.1-6.4,10.2c-1.5,3.9-2.2,8.3-2.2,13.3c0,4.4,0.7,8.7,2.2,12.4s3.7,7,6.4,9.6
				c2.8,2.8,6.3,4.8,10.1,6.3c3.9,1.5,8.3,2.2,12.9,2.2c2.8,0,5.5-0.4,8.3-0.9c2.8-0.6,5.1-1.5,7-2.4v-16.4h-16.4v-10.9h27.4v33.4
				h0.3V432.9z"/>
			<path class="st1" d="M482.3,441c-4.4,0-8.5-0.9-12-3s-6.4-4.8-8.5-8.5c-2-3.7-3.1-8.3-3.1-13.5c0-5.4,1.1-9.8,3.3-13.7
				c2.2-3.9,5.1-6.8,8.8-8.9c3.7-2,7.7-3.1,12.1-3.1s8.1,0.9,11.2,3c3.1,2,5.3,4.4,7,7.2l-0.7,1.8l1.1-10.2h9.7v47.4h-10.7v-12.4
				l1.1,2.8c-0.4,0.7-0.9,1.7-2,3c-1.1,1.1-2.4,2.4-4,3.7c-1.7,1.3-3.7,2.2-5.9,3C487.5,440.6,485.1,441,482.3,441z M485.1,432.1
				c2.6,0,5-0.6,7.2-1.5s3.9-2.4,5.3-4.2c1.5-1.8,2.4-3.9,2.9-6.5v-9.2c-0.6-2.2-1.7-4.2-3.1-6.1c-1.5-1.7-3.3-3.1-5.5-4.1
				c-2.2-0.9-4.4-1.5-7-1.5c-2.8,0-5.3,0.7-7.7,2c-2.4,1.3-4.2,3.3-5.7,5.7s-2,5.4-2,8.5s0.7,5.9,2.2,8.3c1.5,2.6,3.3,4.4,5.9,5.9
				C479.8,431.6,482.3,432.1,485.1,432.1z"/>
			<path class="st1" d="M526.1,351.3h10.7v88.6h-10.7V351.3z"/>
			<path class="st1" d="M574.4,441c-5.3,0-10.1-1.1-14-3.3s-6.8-5.2-9-8.9s-3.1-8.1-3.1-12.9c0-4.6,1.1-8.9,3.5-12.7
				c2.4-3.9,5.5-6.8,9.4-9.2c3.9-2.2,8.3-3.5,13.2-3.5c6.3,0,11.4,1.8,15.4,5.5s6.8,8.7,8.3,15.1l-38.8,13.7l-2.6-6.3l32-11.6
				l-2.2,1.5c-0.9-2.6-2.4-4.8-4.6-6.6c-2.2-1.8-5-2.8-8.3-2.8c-2.9,0-5.5,0.7-7.7,2c-2.2,1.5-4,3.3-5.3,5.7s-2,5.2-2,8.3
				c0,3.3,0.7,6.1,2,8.7c1.3,2.4,3.3,4.4,5.7,5.9s5.1,2,8.1,2c2,0,4-0.4,6.1-1.1c2-0.7,3.7-1.8,5.3-3l5,7.9c-2.4,1.7-5,3-7.9,3.9
				C580,440.3,577.2,441,574.4,441z"/>
			<path class="st1" d="M617.8,392.5l1.1,13.7l-0.6-1.8c1.3-3,2.9-5.4,5.3-7.4c2.4-2,4.8-3.5,7.4-4.6c2.6-1.1,4.8-1.7,6.6-1.7
				l-0.6,10.5c-3.5-0.2-6.6,0.4-9.4,2c-2.8,1.7-4.8,3.7-6.4,6.5c-1.5,2.6-2.4,5.5-2.4,8.7V440h-10.5v-47.5H617.8z"/>
			<path class="st1" d="M646.7,375.3c0-1.7,0.7-3.1,2-4.2s2.8-1.7,4.4-1.7c1.7,0,2.9,0.6,4.2,1.7s1.8,2.6,1.8,4.2
				c0,1.8-0.6,3.1-1.8,4.2c-1.3,1.1-2.8,1.7-4.2,1.7c-1.7,0-3.1-0.6-4.4-1.7C647.4,378.4,646.7,376.9,646.7,375.3z M647.6,392.5
				h10.7V440h-10.7V392.5z"/>
			<path class="st1" d="M695.6,441c-5.3,0-10.1-1.1-14-3.3s-6.8-5.2-9-8.9s-3.1-8.1-3.1-12.9c0-4.6,1.1-8.9,3.5-12.7
				c2.4-3.9,5.5-6.8,9.4-9.2c3.9-2.2,8.3-3.5,13.2-3.5c6.3,0,11.4,1.8,15.4,5.5s6.8,8.7,8.3,15.1l-38.8,13.7l-2.6-6.3l32-11.6
				l-2.2,1.5c-0.9-2.6-2.4-4.8-4.6-6.6c-2.2-1.8-5-2.8-8.3-2.8c-2.9,0-5.5,0.7-7.7,2c-2.2,1.5-4,3.3-5.3,5.7s-2,5.2-2,8.3
				c0,3.3,0.7,6.1,2,8.7c1.3,2.4,3.3,4.4,5.7,5.9s5.1,2,8.1,2c2,0,4-0.4,6.1-1.1c2-0.7,3.7-1.8,5.3-3l5,7.9c-2.4,1.7-5,3-7.9,3.9
				C701.3,440.6,698.4,441,695.6,441z"/>
			<path class="st1" d="M434.7,494.9c8.6,0,16.7,1.1,23.9,3.3s13.4,5.5,18.4,10c5.1,4.4,9,9.8,11.8,16.1s4.2,13.5,4.2,21.8
				c0,6.3-0.9,12.6-2.8,18.8c-1.8,6.3-5,11.8-9.2,17c-4.2,5-9.9,9-16.9,12.2c-7,3.1-15.6,4.6-25.9,4.6h-22.8v55.2H390V495.1h44.7
				V494.9z M438.2,573.9c5.7,0,10.3-0.9,14.2-2.8c3.7-1.8,6.6-4.1,8.8-6.8c2-2.8,3.7-5.7,4.6-8.9c0.9-3.1,1.5-6.1,1.5-8.9
				c0-2.6-0.4-5.5-1.3-8.7c-0.9-3.1-2.4-6.1-4.4-8.9c-2-2.8-5-5.2-8.6-7c-3.7-1.8-8.1-2.8-13.6-2.8h-23.5v54.7h22.3V573.9z
				 M465.4,589.1l40.5,64.6h-29.2l-41.4-64.1L465.4,589.1z"/>
			<path class="st1" d="M514.7,606.4c0-9.2,2.2-17.7,6.6-25.1c4.4-7.6,10.5-13.3,18.4-17.7c7.9-4.2,16.7-6.5,26.7-6.5
				c10.3,0,19.3,2.2,26.8,6.5c7.5,4.2,13.4,10.2,17.7,17.7c4,7.6,6.3,15.9,6.3,25.1c0,9.2-2,17.7-6.3,25.1
				c-4,7.6-10.1,13.5-17.7,17.7c-7.7,4.4-16.7,6.5-26.8,6.5c-9.9,0-18.9-2-26.7-5.9c-7.7-4.1-13.8-9.8-18.2-17.2
				C516.9,625.5,514.7,616.6,514.7,606.4z M539.3,606.6c0,5.4,1.1,10.3,3.5,14.8c2.4,4.4,5.5,7.9,9.6,10.5c4,2.6,8.5,3.9,13.4,3.9
				c5.3,0,10.1-1.3,14-3.9c4-2.6,7.2-6.1,9.4-10.5s3.3-9.4,3.3-14.8c0-5.5-1.1-10.5-3.3-15c-2.2-4.4-5.3-7.9-9.4-10.5
				c-4-2.6-8.6-3.9-14-3.9c-5.1,0-9.6,1.3-13.6,4.1s-7.2,6.3-9.4,10.5C540.4,596.3,539.3,601.3,539.3,606.6z"/>
			<path class="st1" d="M695.2,655.9c-8.3,0-15.3-1.7-21.3-5c-5.9-3.3-10.8-7.4-14.7-12.6l2.4-6.3v21.4h-24.3v-170h24.1v96.9
				l-0.2-8.5c3.7-4.4,8.6-7.9,15.3-10.5c6.4-2.8,13.8-4.1,21.9-4.1c8.3,0,15.8,2,22.4,5.9c6.6,3.9,12.1,9.4,16,16.6
				c4,7.2,5.9,15.9,5.9,26c0,10.3-2.2,19.2-6.4,26.8c-4.4,7.6-10.1,13.3-17.5,17.4C711.4,654.1,703.5,655.9,695.2,655.9z
				 M689.9,635.2c5.1,0,9.9-1.3,14.2-3.9c4.2-2.6,7.7-6.1,10.3-10.5s3.9-9.6,3.9-15.3c0-5.5-1.3-10.5-3.9-14.8
				c-2.6-4.4-5.9-7.9-10.3-10.5c-4.2-2.6-9-3.9-14.2-3.9c-4.6,0-8.8,0.9-12.7,2.6c-3.9,1.7-7.2,3.9-9.7,6.8
				c-2.8,2.8-4.6,6.3-5.9,10.2v20.3c1.5,3.7,3.5,7.2,6.1,10c2.6,3,5.7,5.2,9.6,6.8C680.9,634.5,685.1,635.2,689.9,635.2z"/>
			<path class="st1" d="M761.6,528.2c0-3.7,1.5-6.8,4.4-9.4c2.9-2.4,6.3-3.7,9.7-3.7c3.5,0,6.6,1.3,9.4,3.7c2.8,2.4,4,5.5,4,9.4
				c0,3.7-1.5,6.8-4,9.2c-2.8,2.4-5.9,3.5-9.4,3.5s-6.6-1.3-9.7-3.7C763.3,534.8,761.6,531.8,761.6,528.2z M762.7,561.4h24.5v92.3
				h-24.3v-92.3H762.7z"/>
			<path class="st1" d="M813.7,483.5H838v170h-24.3V483.5z"/>
			<path class="st1" d="M864.4,483.5h24.3v170h-24.3V483.5z"/>
			<path class="st1" d="M955.6,655.9c-8.5,0-16.4-1.8-23.3-5.5c-7-3.7-12.5-9-16.6-16.2c-4-7.2-6.1-16.1-6.1-26.8
				c0-10.5,2.2-19.4,6.4-27s9.9-13.3,16.9-17.4c7-4.1,14.7-6.1,23-6.1c8.8,0,16,1.8,21.3,5.4c5.5,3.5,9.7,7.8,12.7,12.4l-1.3,3.5
				l2.4-17h22.2v92.3h-24.3V631l2.4,5.9c-0.4,0.9-1.5,2.2-3.3,4.2s-4.2,4.1-7.4,6.5c-3.1,2.4-6.6,4.2-10.7,5.9
				C966.1,655.2,961.1,655.9,955.6,655.9z M962.4,636c4.4,0,8.5-0.7,12.1-2.4c3.7-1.7,6.6-3.9,9.2-6.8c2.4-3,4.2-6.5,5.5-10.5v-20.1
				c-1.1-3.7-3.1-7-5.7-10c-2.6-2.8-5.7-5-9.4-6.6c-3.7-1.7-7.7-2.4-12.3-2.4c-5.1,0-9.7,1.3-13.8,3.7c-4,2.4-7.5,5.9-9.9,10.3
				c-2.6,4.4-3.9,9.4-3.9,15c0,5.5,1.3,10.5,3.9,15c2.6,4.4,6.1,8.1,10.5,10.7C952.8,634.7,957.4,636,962.4,636z"/>
			<path class="st1" d="M1061.7,561.4l2.2,26.2l-0.9-3.7c2.4-5.5,5.9-10.3,10.5-14.2s9.2-7,14.2-9.2c4.8-2.2,8.8-3.3,11.8-3.3
				l-1.1,24.4c-7-0.6-13.1,0.7-18.2,3.7c-5.2,3.1-9.2,7.2-12.1,12.4s-4.4,10.5-4.4,16.2v39.7h-24.1v-92.3L1061.7,561.4L1061.7,561.4
				L1061.7,561.4z"/>
			<path class="st1" d="M1156.2,655.9c-8.5,0-16.2-2-23.2-6.1c-6.8-4.1-12.3-10-16.2-17.4c-3.9-7.6-5.9-16.4-5.9-26.4
				c0-10.3,2-19.2,6.2-26.4s9.9-12.7,17.3-16.6c7.4-3.9,15.4-5.7,24.6-5.7c6.6,0,13.1,1.3,19.1,3.9c6.1,2.6,10.9,6.3,14.5,11.1
				l-0.4,8.3v-97.1h24.1v170H1192v-20.9l2.4,6.1c-4.6,5-10.1,9-16.5,12.4C1171.6,654.3,1164.5,655.9,1156.2,655.9z M1163.7,635.2
				c5,0,9.2-0.7,12.9-2.4c3.7-1.7,6.8-3.9,9.6-6.8c2.8-3,4.6-6.5,5.9-10.5v-19.6c-1.1-3.7-3.1-7.2-5.7-10c-2.8-3-5.9-5.2-9.9-6.8
				c-3.9-1.7-8.3-2.6-12.9-2.6c-5.2,0-9.7,1.3-14,3.9c-4.2,2.6-7.7,5.9-10.3,10.3c-2.6,4.4-3.9,9.4-3.9,15c0,5.5,1.3,10.5,3.9,15
				c2.6,4.4,6.1,8.1,10.5,10.7C1154.2,634,1158.8,635.2,1163.7,635.2z"/>
			<path d="M31.5,525c0-18.5,0.4-55.8,0.4-56.1c0.2-2.2,0.4-4.6,0.6-6.8c0.4-3.5,0.9-6.8,1.7-10.3c1.3-7.2,3.3-14.4,5.9-21.2
				c2-5.4,4.4-10.3,7-15.3c2.2-4.2,4.8-8.3,7.5-12.4c4-5.7,8.5-11.1,13.2-16.2c3.1-3.1,6.3-6.3,9.4-9.2c4.8-4.2,9.7-8.1,15.1-11.6
				c5.3-3.5,11-6.8,16.7-9.6c6.8-3.1,13.8-5.7,21.1-7.6c5.7-1.5,11.6-2.6,17.7-3.3c3.1-0.4,6.3-0.6,9.4-0.7c0.7,0,1.5-0.2,2-0.2
				c14.2,0,28.3,0,42.5,0c0.2,0,0.6,0.2,0.7,0.2c2,0.2,4,0.2,6.1,0.4c4.8,0.6,9.6,1.1,14.2,2c6.4,1.3,12.7,3,18.8,5.2
				c7.9,3,15.3,6.5,22.4,10.9c8.5,5.4,16.4,11.4,23.5,18.5c3.1,3.1,6.3,6.3,9.2,9.6c3.7,4.2,7.2,8.7,10.3,13.5
				c3.7,5.5,7,11.3,9.9,17.4c2.8,5.7,5,11.8,6.8,17.9c1.3,4.4,2.4,9,3.1,13.7c0.6,3.9,2.4,15,2.2,17.5c0,60.6,0,121.1,0,181.5
				c0,0.4,0,0.7,0,1.1c-56.6,0-169.9-0.2-170.1-0.2c-2.2-0.2-4.4-0.2-6.6-0.4c-4.4-0.4-8.8-0.9-13.2-1.8c-5.3-1.1-10.7-2.4-15.8-4.1
				c-7-2.2-13.8-5.2-20.4-8.7c-5.1-2.8-10.1-5.9-14.7-9.2c-7.4-5.4-14.2-11.4-20.2-18.1c-2.4-2.6-5-5.4-7.2-8.3
				c-6.6-8.1-12.3-17.2-16.7-26.8c-2.9-6.1-5.1-12.4-7-19c-1.1-3.9-2-7.9-2.8-12c-0.4-2.6-0.9-5-1.3-7.6c-0.4-2.6-0.6-5.2-0.7-7.8
				c-0.2-1.5-0.2-2.8-0.2-4.2C31.7,525.2,31.5,525.2,31.5,525z M110.9,388.4c-2.6,0-5.1,0.2-7.9,0.6c-5.7,1.1-11,3.1-15.8,6.5
				c-2.8,2-5.3,4.2-7.7,6.8c-1.7,1.8-3.3,3.7-4.6,5.9c-4.4,6.8-6.4,14.4-6.6,22.5c0,1.8,0.2,3.9,0.4,5.7c0.4,4.8,1.8,9.4,3.9,13.7
				c2.6,5.4,6.4,10,10.8,13.8c7.9,6.8,17.1,10.2,27.4,10.2c1.7,0,3.1-0.2,4.8-0.4c5.9-0.6,11.2-2.2,16.4-5.2c4.2-2.4,7.7-5.4,11-8.9
				c3.5-3.9,6.3-7.9,8.1-12.7c2.2-5.5,3.1-11.3,2.8-17.4c0-2-0.2-4.2-0.6-6.3c-0.7-4.6-2.2-8.9-4.4-12.9c-2.6-4.6-5.9-8.5-9.7-12
				c-3.7-3.3-7.7-5.7-12.3-7.6C121.4,389.1,116.3,388.2,110.9,388.4z"/>
			<path d="M88.9,430.1c-0.4-11.8,10.1-23.6,23.7-22.5c10.5,0.2,21.7,10,21.1,23.3c-0.4,11.6-10.5,22.2-23.2,21.8
				C98.8,452.5,88.5,442.1,88.9,430.1z M101.7,417.7c-2.9-0.2-5.9,2.6-5.9,5.7c0,3.3,2.6,5.9,5.7,5.9s5.9-2.6,5.9-5.9
				C107.4,420.1,104.7,417.6,101.7,417.7z"/>
		</g>
	</g>
</g>
</svg>
